<svg width="147" height="27" viewBox="0 0 147 27" fill="none" xmlns="http://www.w3.org/2000/svg">
<path d="M0.822462 23.5731C0.274154 23.5731 0 23.5731 0 23.5731C0 23.5731 0 23.3346 0 22.8576C0 22.3807 0 22.0857 0 21.9727C0 21.8472 0 21.4016 0 20.6359C0 19.8827 0 19.4497 0 19.3367C0 19.2238 0 18.9288 0 18.4518C0 17.9748 0 17.7363 0 17.7363C0 17.7363 0.274154 17.7363 0.822462 17.7363C1.37077 17.7363 1.64492 17.7363 1.64492 17.7363C1.64492 17.7363 1.64492 17.9748 1.64492 18.4518C1.64492 18.9288 1.64492 19.2238 1.64492 19.3367C1.64492 19.4497 1.64492 19.8827 1.64492 20.6359C1.64492 21.4016 1.64492 21.8472 1.64492 21.9727C1.64492 22.0857 1.64492 22.3807 1.64492 22.8576C1.64492 23.3346 1.64492 23.5731 1.64492 23.5731C1.64492 23.5731 1.37077 23.5731 0.822462 23.5731ZM0.822462 14.8744C0.274154 14.8744 0 14.8744 0 14.8744C0 14.8744 0 14.6359 0 14.1589C0 13.6819 0 13.0982 0 12.4079C0 11.7049 0 10.6317 0 9.18819C0 7.80744 0 6.75932 0 6.04384C0 5.32836 0 4.73213 0 4.25514C0 3.77815 0 3.53966 0 3.53966C0 3.53966 0.274154 3.53966 0.822462 3.53966C1.37077 3.53966 1.64492 3.53966 1.64492 3.53966C1.64492 3.53966 1.64492 3.77815 1.64492 4.25514C1.64492 4.73213 1.64492 5.32836 1.64492 6.04384C1.64492 6.75932 1.64492 7.80744 1.64492 9.18819C1.64492 10.6317 1.64492 11.7049 1.64492 12.4079C1.64492 13.0982 1.64492 13.6819 1.64492 14.1589C1.64492 14.6359 1.64492 14.8744 1.64492 14.8744C1.64492 14.8744 1.37077 14.8744 0.822462 14.8744ZM2.46739 23.5731C1.91908 23.5731 1.64492 23.5731 1.64492 23.5731C1.64492 23.5731 1.64492 23.3346 1.64492 22.8576C1.64492 22.3807 1.64492 22.0857 1.64492 21.9727C1.64492 21.8472 1.64492 21.4016 1.64492 20.6359C1.64492 19.8827 1.64492 19.4497 1.64492 19.3367C1.64492 19.2238 1.64492 18.9288 1.64492 18.4518C1.64492 17.9748 1.64492 17.7363 1.64492 17.7363C1.64492 17.7363 1.91908 17.7363 2.46739 17.7363C3.01569 17.7363 3.28985 17.7363 3.28985 17.7363C3.28985 17.7363 3.28985 17.9748 3.28985 18.4518C3.28985 18.9288 3.28985 19.2238 3.28985 19.3367C3.28985 19.4497 3.28985 19.8827 3.28985 20.6359C3.28985 21.4016 3.28985 21.8472 3.28985 21.9727C3.28985 22.0857 3.28985 22.3807 3.28985 22.8576C3.28985 23.3346 3.28985 23.5731 3.28985 23.5731C3.28985 23.5731 3.01569 23.5731 2.46739 23.5731ZM2.46739 14.8744C1.91908 14.8744 1.64492 14.8744 1.64492 14.8744C1.64492 14.8744 1.64492 14.6359 1.64492 14.1589C1.64492 13.6819 1.64492 13.0982 1.64492 12.4079C1.64492 11.7049 1.64492 10.6317 1.64492 9.18819C1.64492 7.80744 1.64492 6.75932 1.64492 6.04384C1.64492 5.32836 1.64492 4.73213 1.64492 4.25514C1.64492 3.77815 1.64492 3.53966 1.64492 3.53966C1.64492 3.53966 1.91908 3.53966 2.46739 3.53966C3.01569 3.53966 3.28985 3.53966 3.28985 3.53966C3.28985 3.53966 3.28985 3.77815 3.28985 4.25514C3.28985 4.73213 3.28985 5.32836 3.28985 6.04384C3.28985 6.75932 3.28985 7.80744 3.28985 9.18819C3.28985 10.6317 3.28985 11.7049 3.28985 12.4079C3.28985 13.0982 3.28985 13.6819 3.28985 14.1589C3.28985 14.6359 3.28985 14.8744 3.28985 14.8744C3.28985 14.8744 3.01569 14.8744 2.46739 14.8744ZM3.43027 17.7363C3.33665 17.7363 3.28985 17.7363 3.28985 17.7363C3.28985 17.7363 3.28985 17.4978 3.28985 17.0208C3.28985 16.5438 3.28985 16.3053 3.28985 16.3053C3.28985 16.3053 3.33665 16.3053 3.43027 16.3053C3.47039 16.3053 3.54394 16.3053 3.65093 16.3053C3.75791 16.3053 3.85153 16.3053 3.93177 16.3053C4.01201 16.3053 4.19255 16.2991 4.47339 16.2865C4.75423 16.274 5.00832 16.2551 5.23567 16.23C5.46302 16.2049 5.57669 16.1924 5.57669 16.1924C5.57669 16.1924 5.7238 16.4058 6.01801 16.8325C6.31223 17.2593 6.45933 17.4727 6.45933 17.4727C6.45933 17.4727 6.37241 17.4853 6.19855 17.5104C5.81073 17.5857 5.40952 17.6422 4.99495 17.6798C4.59375 17.7175 4.18586 17.7363 3.77129 17.7363C3.74454 17.7363 3.68436 17.7363 3.59075 17.7363C3.51051 17.7363 3.45701 17.7363 3.43027 17.7363ZM3.43027 16.3053C3.33665 16.3053 3.28985 16.3053 3.28985 16.3053C3.28985 16.3053 3.28985 16.0543 3.28985 15.5522C3.28985 15.1003 3.28985 14.8744 3.28985 14.8744C3.28985 14.8744 3.33665 14.8744 3.43027 14.8744C3.45701 14.8744 3.51051 14.8744 3.59075 14.8744C3.67099 14.8744 3.75123 14.8744 3.83147 14.8744C3.93845 14.8744 4.0187 14.8744 4.07219 14.8744C4.12568 14.8744 4.23267 14.8681 4.39315 14.8555C4.55363 14.843 4.63387 14.8367 4.63387 14.8367C4.63387 14.8367 4.79435 15.0689 5.11531 15.5334C5.4229 15.9727 5.57669 16.1924 5.57669 16.1924C5.57669 16.1924 5.46302 16.2049 5.23567 16.23C5.00832 16.2551 4.75423 16.274 4.47339 16.2865C4.19255 16.2991 4.01201 16.3053 3.93177 16.3053C3.85153 16.3053 3.7646 16.3053 3.67099 16.3053C3.57737 16.3053 3.49713 16.3053 3.43027 16.3053ZM11.3941 8.96225C10.8324 8.96225 10.5516 8.96225 10.5516 8.96225C10.5516 8.96225 10.5516 8.91832 10.5516 8.83045C10.5516 7.43715 9.89629 6.20702 8.5857 5.14008C7.28848 4.07313 5.67031 3.53966 3.73117 3.53966C3.70442 3.53966 3.65093 3.53966 3.57069 3.53966C3.50382 3.53966 3.45701 3.53966 3.43027 3.53966C3.33665 3.53966 3.28985 3.53966 3.28985 3.53966C3.28985 3.53966 3.28985 3.31372 3.28985 2.86183C3.28985 2.35974 3.28985 2.1087 3.28985 2.1087C3.28985 2.1087 3.33665 2.1087 3.43027 2.1087C3.45701 2.1087 3.50382 2.1087 3.57069 2.1087C3.65093 2.1087 3.70442 2.1087 3.73117 2.1087C6.09825 2.1087 8.10426 2.77397 9.74918 4.10451C11.3941 5.43506 12.2166 7.00409 12.2166 8.81163C12.2166 8.91204 12.2166 8.96225 12.2166 8.96225C12.2166 8.96225 11.9424 8.96225 11.3941 8.96225ZM13.0591 8.96225C12.4974 8.96225 12.2166 8.96225 12.2166 8.96225C12.2166 8.96225 12.2166 8.91204 12.2166 8.81163C12.2166 7.00409 11.3941 5.43506 9.74918 4.10451C8.10426 2.77397 6.09825 2.1087 3.73117 2.1087C3.70442 2.1087 3.65093 2.1087 3.57069 2.1087C3.50382 2.1087 3.45701 2.1087 3.43027 2.1087C3.33665 2.1087 3.28985 2.1087 3.28985 2.1087C3.28985 2.1087 3.28985 1.8702 3.28985 1.39322C3.28985 0.916228 3.28985 0.677734 3.28985 0.677734C3.28985 0.677734 3.33665 0.677734 3.43027 0.677734C3.45701 0.677734 3.51051 0.677734 3.59075 0.677734C3.68436 0.677734 3.74454 0.677734 3.77129 0.677734C6.71343 0.677734 9.13401 1.47481 11.033 3.06895C12.9454 4.65054 13.9016 6.52083 13.9016 8.67983C13.9016 8.86811 13.9016 8.96225 13.9016 8.96225C13.9016 8.96225 13.6208 8.96225 13.0591 8.96225ZM12.357 24.0815C11.9157 24.3702 11.695 24.5145 11.695 24.5145C11.695 24.5145 11.5145 24.2823 11.1534 23.8179C10.819 23.4037 10.3376 22.7509 9.70906 21.8597C9.08051 20.9685 8.1845 19.7509 7.02102 18.207C6.64656 17.7175 6.45933 17.4727 6.45933 17.4727C6.45933 17.4727 6.72011 17.4099 7.24168 17.2844C7.74986 17.1212 8.00396 17.0396 8.00396 17.0396C8.00396 17.0396 8.1845 17.2781 8.54558 17.7551C9.56195 19.0982 10.371 20.1714 10.9728 20.9748C11.588 21.7656 12.0962 22.4371 12.4974 22.9894C12.8184 23.4413 12.9788 23.6673 12.9788 23.6673C12.9788 23.6673 12.7716 23.8053 12.357 24.0815ZM8.7863 14.9685C8.54558 15.094 8.42522 15.1568 8.42522 15.1568C8.42522 15.1568 8.27811 14.9622 7.9839 14.5731C7.67631 14.1589 7.52252 13.9518 7.52252 13.9518C7.52252 13.9518 7.63619 13.889 7.86354 13.7635C8.57232 13.3869 9.19419 12.7907 9.72912 11.9748C10.2774 11.1463 10.5516 10.3116 10.5516 9.47062C10.5516 9.38275 10.5516 9.33882 10.5516 9.33882C10.5516 9.33882 10.8324 9.33882 11.3941 9.33882C11.9424 9.33882 12.2166 9.33882 12.2166 9.33882C12.2166 9.33882 12.2166 9.38903 12.2166 9.48945C12.2166 10.5815 11.8956 11.6171 11.2537 12.5961C10.6251 13.5627 9.80267 14.3535 8.7863 14.9685ZM13.6408 23.2342C13.1995 23.5229 12.9788 23.6673 12.9788 23.6673C12.9788 23.6673 12.8184 23.4413 12.4974 22.9894C12.0962 22.4371 11.588 21.7656 10.9728 20.9748C10.371 20.1714 9.56195 19.0982 8.54558 17.7551C8.1845 17.2781 8.00396 17.0396 8.00396 17.0396C8.00396 17.0396 8.24468 16.9455 8.72612 16.7572C9.16744 16.5438 9.3881 16.4371 9.3881 16.4371C9.3881 16.4371 9.5887 16.7007 9.9899 17.2279C10.9662 18.5083 11.7418 19.5376 12.3169 20.3158C12.8919 21.0815 13.3332 21.6526 13.6408 22.0292C14.0554 22.5689 14.2627 22.8388 14.2627 22.8388C14.2627 22.8388 14.0554 22.9706 13.6408 23.2342ZM9.689 16.2489C9.4884 16.3744 9.3881 16.4371 9.3881 16.4371C9.3881 16.4371 9.22093 16.2237 8.8866 15.797C8.57901 15.3702 8.42522 15.1568 8.42522 15.1568C8.42522 15.1568 8.54558 15.094 8.7863 14.9685C9.80267 14.3535 10.6251 13.5627 11.2537 12.5961C11.8956 11.6171 12.2166 10.5815 12.2166 9.48945C12.2166 9.38903 12.2166 9.33882 12.2166 9.33882C12.2166 9.33882 12.4974 9.33882 13.0591 9.33882C13.6208 9.33882 13.9016 9.33882 13.9016 9.33882C13.9016 9.33882 13.9016 9.43296 13.9016 9.62125C13.9016 10.9643 13.5205 12.2258 12.7582 13.4058C11.9959 14.5857 10.9728 15.5334 9.689 16.2489ZM6.35903 16.0041C5.83747 16.1296 5.57669 16.1924 5.57669 16.1924C5.57669 16.1924 5.4229 15.9727 5.11531 15.5334C4.79435 15.0689 4.63387 14.8367 4.63387 14.8367C4.63387 14.8367 4.90134 14.7928 5.43627 14.7049C5.93109 14.5668 6.17181 14.4978 6.15843 14.4978C6.15843 14.4978 6.28548 14.6735 6.53957 15.025C6.90065 15.5145 7.0812 15.7593 7.0812 15.7593C7.0812 15.7593 6.84047 15.8409 6.35903 16.0041ZM7.24168 17.2844C6.72011 17.4099 6.45933 17.4727 6.45933 17.4727C6.45933 17.4727 6.31223 17.2593 6.01801 16.8325C5.7238 16.4058 5.57669 16.1924 5.57669 16.1924C5.57669 16.1924 5.83747 16.1296 6.35903 16.0041C6.84047 15.8409 7.0812 15.7593 7.0812 15.7593C7.0812 15.7593 7.22162 15.9664 7.50246 16.3807C7.83679 16.82 8.00396 17.0396 8.00396 17.0396C8.00396 17.0396 7.74986 17.1212 7.24168 17.2844ZM7.76324 15.4957C7.30854 15.6714 7.0812 15.7593 7.0812 15.7593C7.0812 15.7593 6.90065 15.5145 6.53957 15.025C6.28548 14.6735 6.15843 14.4978 6.15843 14.4978C6.17181 14.4978 6.41253 14.4225 6.88059 14.2719C7.30854 14.0585 7.52252 13.9518 7.52252 13.9518C7.52252 13.9518 7.67631 14.1589 7.9839 14.5731C8.27811 14.9622 8.42522 15.1568 8.42522 15.1568C8.42522 15.1568 8.20456 15.2698 7.76324 15.4957ZM8.72612 16.7572C8.24468 16.9455 8.00396 17.0396 8.00396 17.0396C8.00396 17.0396 7.83679 16.82 7.50246 16.3807C7.22162 15.9664 7.0812 15.7593 7.0812 15.7593C7.0812 15.7593 7.30854 15.6714 7.76324 15.4957C8.20456 15.2698 8.42522 15.1568 8.42522 15.1568C8.42522 15.1568 8.57901 15.3702 8.8866 15.797C9.22093 16.2237 9.3881 16.4371 9.3881 16.4371C9.3881 16.4371 9.16744 16.5438 8.72612 16.7572ZM11.3941 9.33882C10.8324 9.33882 10.5516 9.33882 10.5516 9.33882C10.5516 9.33882 10.5516 9.30744 10.5516 9.24468C10.5516 9.18192 10.5516 9.15054 10.5516 9.15054C10.5516 9.15054 10.8324 9.15054 11.3941 9.15054C11.9424 9.15054 12.2166 9.15054 12.2166 9.15054C12.2166 9.15054 12.2166 9.18192 12.2166 9.24468C12.2166 9.30744 12.2166 9.33882 12.2166 9.33882C12.2166 9.33882 11.9424 9.33882 11.3941 9.33882ZM11.3941 9.15054C10.8324 9.15054 10.5516 9.15054 10.5516 9.15054C10.5516 9.15054 10.5516 9.11916 10.5516 9.0564C10.5516 8.99363 10.5516 8.96225 10.5516 8.96225C10.5516 8.96225 10.8324 8.96225 11.3941 8.96225C11.9424 8.96225 12.2166 8.96225 12.2166 8.96225C12.2166 8.96225 12.2166 8.99363 12.2166 9.0564C12.2166 9.11916 12.2166 9.15054 12.2166 9.15054C12.2166 9.15054 11.9424 9.15054 11.3941 9.15054ZM13.0591 9.33882C12.4974 9.33882 12.2166 9.33882 12.2166 9.33882C12.2166 9.33882 12.2166 9.30744 12.2166 9.24468C12.2166 9.18192 12.2166 9.15054 12.2166 9.15054C12.2166 9.15054 12.4974 9.15054 13.0591 9.15054C13.6208 9.15054 13.9016 9.15054 13.9016 9.15054C13.9016 9.15054 13.9016 9.18192 13.9016 9.24468C13.9016 9.30744 13.9016 9.33882 13.9016 9.33882C13.9016 9.33882 13.6208 9.33882 13.0591 9.33882ZM13.0591 9.15054C12.4974 9.15054 12.2166 9.15054 12.2166 9.15054C12.2166 9.15054 12.2166 9.11916 12.2166 9.0564C12.2166 8.99363 12.2166 8.96225 12.2166 8.96225C12.2166 8.96225 12.4974 8.96225 13.0591 8.96225C13.6208 8.96225 13.9016 8.96225 13.9016 8.96225C13.9016 8.96225 13.9016 8.99363 13.9016 9.0564C13.9016 9.11916 13.9016 9.15054 13.9016 9.15054C13.9016 9.15054 13.6208 9.15054 13.0591 9.15054ZM0.822462 17.7363C0.274154 17.7363 0 17.7363 0 17.7363C0 17.7363 0 17.4978 0 17.0208C0 16.5438 0 16.3053 0 16.3053C0 16.3053 0.274154 16.3053 0.822462 16.3053C1.37077 16.3053 1.64492 16.3053 1.64492 16.3053C1.64492 16.3053 1.64492 16.5438 1.64492 17.0208C1.64492 17.4978 1.64492 17.7363 1.64492 17.7363C1.64492 17.7363 1.37077 17.7363 0.822462 17.7363ZM0.822462 16.3053C0.274154 16.3053 0 16.3053 0 16.3053C0 16.3053 0 16.0668 0 15.5899C0 15.1129 0 14.8744 0 14.8744C0 14.8744 0.274154 14.8744 0.822462 14.8744C1.37077 14.8744 1.64492 14.8744 1.64492 14.8744C1.64492 14.8744 1.64492 15.1129 1.64492 15.5899C1.64492 16.0668 1.64492 16.3053 1.64492 16.3053C1.64492 16.3053 1.37077 16.3053 0.822462 16.3053ZM2.46739 17.7363C1.91908 17.7363 1.64492 17.7363 1.64492 17.7363C1.64492 17.7363 1.64492 17.4978 1.64492 17.0208C1.64492 16.5438 1.64492 16.3053 1.64492 16.3053C1.64492 16.3053 1.91908 16.3053 2.46739 16.3053C3.01569 16.3053 3.28985 16.3053 3.28985 16.3053C3.28985 16.3053 3.28985 16.5438 3.28985 17.0208C3.28985 17.4978 3.28985 17.7363 3.28985 17.7363C3.28985 17.7363 3.01569 17.7363 2.46739 17.7363ZM2.46739 16.3053C1.91908 16.3053 1.64492 16.3053 1.64492 16.3053C1.64492 16.3053 1.64492 16.0668 1.64492 15.5899C1.64492 15.1129 1.64492 14.8744 1.64492 14.8744C1.64492 14.8744 1.91908 14.8744 2.46739 14.8744C3.01569 14.8744 3.28985 14.8744 3.28985 14.8744C3.28985 14.8744 3.28985 15.1129 3.28985 15.5899C3.28985 16.0668 3.28985 16.3053 3.28985 16.3053C3.28985 16.3053 3.01569 16.3053 2.46739 16.3053ZM0.822462 26.435C0.274154 26.435 0 26.435 0 26.435C0 26.435 0 26.1966 0 25.7196C0 25.2426 0 25.0041 0 25.0041C0 25.0041 0.274154 25.0041 0.822462 25.0041C1.37077 25.0041 1.64492 25.0041 1.64492 25.0041C1.64492 25.0041 1.64492 25.2426 1.64492 25.7196C1.64492 26.1966 1.64492 26.435 1.64492 26.435C1.64492 26.435 1.37077 26.435 0.822462 26.435ZM0.822462 25.0041C0.274154 25.0041 0 25.0041 0 25.0041C0 25.0041 0 24.7656 0 24.2886C0 23.8116 0 23.5731 0 23.5731C0 23.5731 0.274154 23.5731 0.822462 23.5731C1.37077 23.5731 1.64492 23.5731 1.64492 23.5731C1.64492 23.5731 1.64492 23.8116 1.64492 24.2886C1.64492 24.7656 1.64492 25.0041 1.64492 25.0041C1.64492 25.0041 1.37077 25.0041 0.822462 25.0041ZM2.46739 26.435C1.91908 26.435 1.64492 26.435 1.64492 26.435C1.64492 26.435 1.64492 26.1966 1.64492 25.7196C1.64492 25.2426 1.64492 25.0041 1.64492 25.0041C1.64492 25.0041 1.91908 25.0041 2.46739 25.0041C3.01569 25.0041 3.28985 25.0041 3.28985 25.0041C3.28985 25.0041 3.28985 25.2426 3.28985 25.7196C3.28985 26.1966 3.28985 26.435 3.28985 26.435C3.28985 26.435 3.01569 26.435 2.46739 26.435ZM2.46739 25.0041C1.91908 25.0041 1.64492 25.0041 1.64492 25.0041C1.64492 25.0041 1.64492 24.7656 1.64492 24.2886C1.64492 23.8116 1.64492 23.5731 1.64492 23.5731C1.64492 23.5731 1.91908 23.5731 2.46739 23.5731C3.01569 23.5731 3.28985 23.5731 3.28985 23.5731C3.28985 23.5731 3.28985 23.8116 3.28985 24.2886C3.28985 24.7656 3.28985 25.0041 3.28985 25.0041C3.28985 25.0041 3.01569 25.0041 2.46739 25.0041ZM0.822462 3.53966C0.274154 3.53966 0 3.53966 0 3.53966C0 3.53966 0 3.30117 0 2.82418C0 2.34719 0 2.1087 0 2.1087C0 2.1087 0.274154 2.1087 0.822462 2.1087C1.37077 2.1087 1.64492 2.1087 1.64492 2.1087C1.64492 2.1087 1.64492 2.34719 1.64492 2.82418C1.64492 3.30117 1.64492 3.53966 1.64492 3.53966C1.64492 3.53966 1.37077 3.53966 0.822462 3.53966ZM0.822462 2.1087C0.274154 2.1087 0 2.1087 0 2.1087C0 2.1087 0 1.8702 0 1.39322C0 0.916228 0 0.677734 0 0.677734C0 0.677734 0.274154 0.677734 0.822462 0.677734C1.37077 0.677734 1.64492 0.677734 1.64492 0.677734C1.64492 0.677734 1.64492 0.916228 1.64492 1.39322C1.64492 1.8702 1.64492 2.1087 1.64492 2.1087C1.64492 2.1087 1.37077 2.1087 0.822462 2.1087ZM2.46739 3.53966C1.91908 3.53966 1.64492 3.53966 1.64492 3.53966C1.64492 3.53966 1.64492 3.30117 1.64492 2.82418C1.64492 2.34719 1.64492 2.1087 1.64492 2.1087C1.64492 2.1087 1.91908 2.1087 2.46739 2.1087C3.01569 2.1087 3.28985 2.1087 3.28985 2.1087C3.28985 2.1087 3.28985 2.34719 3.28985 2.82418C3.28985 3.30117 3.28985 3.53966 3.28985 3.53966C3.28985 3.53966 3.01569 3.53966 2.46739 3.53966ZM2.46739 2.1087C1.91908 2.1087 1.64492 2.1087 1.64492 2.1087C1.64492 2.1087 1.64492 1.8702 1.64492 1.39322C1.64492 0.916228 1.64492 0.677734 1.64492 0.677734C1.64492 0.677734 1.91908 0.677734 2.46739 0.677734C3.01569 0.677734 3.28985 0.677734 3.28985 0.677734C3.28985 0.677734 3.28985 0.916228 3.28985 1.39322C3.28985 1.8702 3.28985 2.1087 3.28985 2.1087C3.28985 2.1087 3.01569 2.1087 2.46739 2.1087ZM13.6208 23.253C14.0487 22.9643 14.2627 22.82 14.2627 22.82C14.2627 22.82 14.4031 23.0145 14.684 23.4037C14.9648 23.7802 15.1052 23.9685 15.1052 23.9685C15.1052 23.9685 14.8912 24.1066 14.4633 24.3827C14.0353 24.6714 13.8214 24.8158 13.8214 24.8158C13.8214 24.8158 13.6809 24.6212 13.4001 24.2321C13.1193 23.8556 12.9788 23.6673 12.9788 23.6673C12.9788 23.6673 13.1928 23.5292 13.6208 23.253ZM14.4633 24.3827C14.8912 24.1066 15.1052 23.9685 15.1052 23.9685C15.1052 23.9685 15.2456 24.1568 15.5265 24.5334C15.8073 24.9225 15.9477 25.1171 15.9477 25.1171C15.9477 25.1171 15.7404 25.2551 15.3259 25.5313C14.8979 25.8074 14.684 25.9455 14.684 25.9455C14.684 25.9455 14.5368 25.7572 14.2426 25.3807C13.9618 25.0041 13.8214 24.8158 13.8214 24.8158C13.8214 24.8158 14.0353 24.6714 14.4633 24.3827ZM12.3369 24.0815C12.7649 23.8053 12.9788 23.6673 12.9788 23.6673C12.9788 23.6673 13.1193 23.8556 13.4001 24.2321C13.6809 24.6212 13.8214 24.8158 13.8214 24.8158C13.8214 24.8158 13.6074 24.9539 13.1794 25.23C12.7515 25.5062 12.5375 25.6443 12.5375 25.6443C12.5375 25.6443 12.3971 25.456 12.1163 25.0794C11.8354 24.7028 11.695 24.5145 11.695 24.5145C11.695 24.5145 11.909 24.3702 12.3369 24.0815ZM13.1794 25.23C13.6074 24.9539 13.8214 24.8158 13.8214 24.8158C13.8214 24.8158 13.9618 25.0041 14.2426 25.3807C14.5368 25.7572 14.684 25.9455 14.684 25.9455C14.684 25.9455 14.47 26.0899 14.042 26.3786C13.6141 26.6547 13.4001 26.7928 13.4001 26.7928C13.4001 26.7928 13.253 26.6045 12.9588 26.2279C12.6779 25.8388 12.5375 25.6443 12.5375 25.6443C12.5375 25.6443 12.7515 25.5062 13.1794 25.23Z" fill="#374143"/>
<path d="M24.0319 26.435C23.497 26.435 23.2295 26.435 23.2295 26.435C23.2295 26.435 23.2295 26.1966 23.2295 25.7196C23.2295 25.2426 23.2295 25.0041 23.2295 25.0041C23.2295 25.0041 23.497 25.0041 24.0319 25.0041C24.5134 25.0041 24.948 25.0041 25.3358 25.0041C25.737 25.0041 26.1182 25.0041 26.4793 25.0041C26.8537 25.0041 27.2415 25.0041 27.6427 25.0041C28.0439 25.0041 28.4986 25.0041 29.0068 25.0041C29.5418 25.0041 29.8092 25.0041 29.8092 25.0041C29.8092 25.0041 29.8092 25.2489 29.8092 25.7384C29.8092 26.2028 29.8092 26.435 29.8092 26.435C29.8092 26.435 29.5418 26.435 29.0068 26.435C28.4986 26.435 28.0439 26.435 27.6427 26.435C27.2415 26.435 26.8537 26.435 26.4793 26.435C26.1182 26.435 25.737 26.435 25.3358 26.435C24.948 26.435 24.5134 26.435 24.0319 26.435ZM24.0319 25.0041C23.497 25.0041 23.2295 25.0041 23.2295 25.0041C23.2295 25.0041 23.2295 24.7656 23.2295 24.2886C23.2295 23.8116 23.2295 23.5731 23.2295 23.5731C23.2295 23.5731 23.497 23.5731 24.0319 23.5731C24.5134 23.5731 24.948 23.5731 25.3358 23.5731C25.737 23.5731 26.1182 23.5731 26.4793 23.5731C26.8537 23.5731 27.2415 23.5731 27.6427 23.5731C28.0439 23.5731 28.4986 23.5731 29.0068 23.5731C29.5418 23.5731 29.8092 23.5731 29.8092 23.5731C29.8092 23.5731 29.8092 23.8179 29.8092 24.3074C29.8092 24.7719 29.8092 25.0041 29.8092 25.0041C29.8092 25.0041 29.5418 25.0041 29.0068 25.0041C28.4986 25.0041 28.0439 25.0041 27.6427 25.0041C27.2415 25.0041 26.8537 25.0041 26.4793 25.0041C26.1182 25.0041 25.737 25.0041 25.3358 25.0041C24.948 25.0041 24.5134 25.0041 24.0319 25.0041ZM24.0319 14.9873C23.497 14.9873 23.2295 14.9873 23.2295 14.9873C23.2295 14.9873 23.2295 14.7489 23.2295 14.2719C23.2295 13.7949 23.2295 13.5564 23.2295 13.5564C23.2295 13.5564 23.497 13.5564 24.0319 13.5564C24.2593 13.5564 24.5201 13.5564 24.8143 13.5564C25.1219 13.5564 25.4294 13.5564 25.737 13.5564C26.0312 13.5564 26.3188 13.5564 26.5996 13.5564C26.8805 13.5564 27.1346 13.5564 27.3619 13.5564C27.8968 13.5564 28.1643 13.5564 28.1643 13.5564C28.1643 13.5564 28.1643 13.8012 28.1643 14.2907C28.1643 14.7551 28.1643 14.9873 28.1643 14.9873C28.1643 14.9873 27.8968 14.9873 27.3619 14.9873C27.1479 14.9873 26.9005 14.9873 26.6197 14.9873C26.3388 14.9873 26.058 14.9873 25.7772 14.9873C25.4562 14.9873 25.1419 14.9873 24.8343 14.9873C24.5401 14.9873 24.2727 14.9873 24.0319 14.9873ZM24.0319 13.5564C23.497 13.5564 23.2295 13.5564 23.2295 13.5564C23.2295 13.5564 23.2295 13.3179 23.2295 12.8409C23.2295 12.3639 23.2295 12.1254 23.2295 12.1254C23.2295 12.1254 23.497 12.1254 24.0319 12.1254C24.2727 12.1254 24.5468 12.1254 24.8544 12.1254C25.162 12.1254 25.4696 12.1254 25.7772 12.1254C26.0714 12.1254 26.3522 12.1254 26.6197 12.1254C26.9005 12.1254 27.1479 12.1254 27.3619 12.1254C27.8968 12.1254 28.1643 12.1254 28.1643 12.1254C28.1643 12.1254 28.1643 12.3702 28.1643 12.8597C28.1643 13.3242 28.1643 13.5564 28.1643 13.5564C28.1643 13.5564 27.8968 13.5564 27.3619 13.5564C27.1479 13.5564 26.9005 13.5564 26.6197 13.5564C26.3388 13.5564 26.0446 13.5564 25.737 13.5564C25.4428 13.5564 25.1419 13.5564 24.8343 13.5564C24.5401 13.5564 24.2727 13.5564 24.0319 13.5564ZM24.0319 3.53966C23.497 3.53966 23.2295 3.53966 23.2295 3.53966C23.2295 3.53966 23.2295 3.30117 23.2295 2.82418C23.2295 2.34719 23.2295 2.1087 23.2295 2.1087C23.2295 2.1087 23.497 2.1087 24.0319 2.1087C24.5134 2.1087 24.948 2.1087 25.3358 2.1087C25.7237 2.1087 26.0981 2.1087 26.4592 2.1087C26.8337 2.1087 27.2215 2.1087 27.6227 2.1087C28.0373 2.1087 28.4986 2.1087 29.0068 2.1087C29.5418 2.1087 29.8092 2.1087 29.8092 2.1087C29.8092 2.1087 29.8092 2.35347 29.8092 2.84301C29.8092 3.30744 29.8092 3.53966 29.8092 3.53966C29.8092 3.53966 29.5418 3.53966 29.0068 3.53966C28.4986 3.53966 28.0373 3.53966 27.6227 3.53966C27.2215 3.53966 26.8337 3.53966 26.4592 3.53966C26.0981 3.53966 25.7237 3.53966 25.3358 3.53966C24.948 3.53966 24.5134 3.53966 24.0319 3.53966ZM24.0319 2.1087C23.497 2.1087 23.2295 2.1087 23.2295 2.1087C23.2295 2.1087 23.2295 1.8702 23.2295 1.39322C23.2295 0.916228 23.2295 0.677734 23.2295 0.677734C23.2295 0.677734 23.497 0.677734 24.0319 0.677734C24.5134 0.677734 24.948 0.677734 25.3358 0.677734C25.7237 0.677734 26.0981 0.677734 26.4592 0.677734C26.8337 0.677734 27.2215 0.677734 27.6227 0.677734C28.0373 0.677734 28.4986 0.677734 29.0068 0.677734C29.5418 0.677734 29.8092 0.677734 29.8092 0.677734C29.8092 0.677734 29.8092 0.922504 29.8092 1.41204C29.8092 1.87648 29.8092 2.1087 29.8092 2.1087C29.8092 2.1087 29.5418 2.1087 29.0068 2.1087C28.4986 2.1087 28.0373 2.1087 27.6227 2.1087C27.2215 2.1087 26.8337 2.1087 26.4592 2.1087C26.0981 2.1087 25.7237 2.1087 25.3358 2.1087C24.948 2.1087 24.5134 2.1087 24.0319 2.1087ZM20.7621 14.9873C20.2138 14.9873 19.9397 14.9873 19.9397 14.9873C19.9397 14.9873 19.9397 14.7489 19.9397 14.2719C19.9397 13.7949 19.9397 13.5564 19.9397 13.5564C19.9397 13.5564 20.2138 13.5564 20.7621 13.5564C21.3105 13.5564 21.5846 13.5564 21.5846 13.5564C21.5846 13.5564 21.5846 13.7949 21.5846 14.2719C21.5846 14.7489 21.5846 14.9873 21.5846 14.9873C21.5846 14.9873 21.3105 14.9873 20.7621 14.9873ZM20.7621 13.5564C20.2138 13.5564 19.9397 13.5564 19.9397 13.5564C19.9397 13.5564 19.9397 13.3179 19.9397 12.8409C19.9397 12.3639 19.9397 12.1254 19.9397 12.1254C19.9397 12.1254 20.2138 12.1254 20.7621 12.1254C21.3105 12.1254 21.5846 12.1254 21.5846 12.1254C21.5846 12.1254 21.5846 12.3639 21.5846 12.8409C21.5846 13.3179 21.5846 13.5564 21.5846 13.5564C21.5846 13.5564 21.3105 13.5564 20.7621 13.5564ZM22.4071 14.9873C21.8588 14.9873 21.5846 14.9873 21.5846 14.9873C21.5846 14.9873 21.5846 14.7489 21.5846 14.2719C21.5846 13.7949 21.5846 13.5564 21.5846 13.5564C21.5846 13.5564 21.8588 13.5564 22.4071 13.5564C22.9554 13.5564 23.2295 13.5564 23.2295 13.5564C23.2295 13.5564 23.2295 13.7949 23.2295 14.2719C23.2295 14.7489 23.2295 14.9873 23.2295 14.9873C23.2295 14.9873 22.9554 14.9873 22.4071 14.9873ZM22.4071 13.5564C21.8588 13.5564 21.5846 13.5564 21.5846 13.5564C21.5846 13.5564 21.5846 13.3179 21.5846 12.8409C21.5846 12.3639 21.5846 12.1254 21.5846 12.1254C21.5846 12.1254 21.8588 12.1254 22.4071 12.1254C22.9554 12.1254 23.2295 12.1254 23.2295 12.1254C23.2295 12.1254 23.2295 12.3639 23.2295 12.8409C23.2295 13.3179 23.2295 13.5564 23.2295 13.5564C23.2295 13.5564 22.9554 13.5564 22.4071 13.5564ZM20.7621 12.1254C20.2138 12.1254 19.9397 12.1254 19.9397 12.1254C19.9397 12.1254 19.9397 11.8869 19.9397 11.4099C19.9397 10.933 19.9397 10.5689 19.9397 10.3179C19.9397 10.0543 19.9397 9.20075 19.9397 7.75723C19.9397 6.36393 19.9397 5.5543 19.9397 5.32836C19.9397 5.08987 19.9397 4.73213 19.9397 4.25514C19.9397 3.77815 19.9397 3.53966 19.9397 3.53966C19.9397 3.53966 20.2138 3.53966 20.7621 3.53966C21.3105 3.53966 21.5846 3.53966 21.5846 3.53966C21.5846 3.53966 21.5846 3.77815 21.5846 4.25514C21.5846 4.73213 21.5846 5.08987 21.5846 5.32836C21.5846 5.56686 21.5846 6.37648 21.5846 7.75723C21.5846 9.22585 21.5846 10.0857 21.5846 10.3367C21.5846 10.5752 21.5846 10.933 21.5846 11.4099C21.5846 11.8869 21.5846 12.1254 21.5846 12.1254C21.5846 12.1254 21.3105 12.1254 20.7621 12.1254ZM22.4071 12.1254C21.8588 12.1254 21.5846 12.1254 21.5846 12.1254C21.5846 12.1254 21.5846 11.8869 21.5846 11.4099C21.5846 10.933 21.5846 10.5689 21.5846 10.3179C21.5846 10.0543 21.5846 9.20075 21.5846 7.75723C21.5846 6.36393 21.5846 5.5543 21.5846 5.32836C21.5846 5.08987 21.5846 4.73213 21.5846 4.25514C21.5846 3.77815 21.5846 3.53966 21.5846 3.53966C21.5846 3.53966 21.8588 3.53966 22.4071 3.53966C22.9554 3.53966 23.2295 3.53966 23.2295 3.53966C23.2295 3.53966 23.2295 3.77815 23.2295 4.25514C23.2295 4.73213 23.2295 5.08987 23.2295 5.32836C23.2295 5.56686 23.2295 6.37648 23.2295 7.75723C23.2295 9.22585 23.2295 10.0857 23.2295 10.3367C23.2295 10.5752 23.2295 10.933 23.2295 11.4099C23.2295 11.8869 23.2295 12.1254 23.2295 12.1254C23.2295 12.1254 22.9554 12.1254 22.4071 12.1254ZM20.7621 23.5731C20.2138 23.5731 19.9397 23.5731 19.9397 23.5731C19.9397 23.5731 19.9397 23.3346 19.9397 22.8576C19.9397 22.3807 19.9397 22.0292 19.9397 21.8032C19.9397 21.5648 19.9397 20.7238 19.9397 19.2802C19.9397 17.8869 19.9397 17.0648 19.9397 16.8137C19.9397 16.5501 19.9397 16.1798 19.9397 15.7028C19.9397 15.2258 19.9397 14.9873 19.9397 14.9873C19.9397 14.9873 20.2138 14.9873 20.7621 14.9873C21.3105 14.9873 21.5846 14.9873 21.5846 14.9873C21.5846 14.9873 21.5846 15.2258 21.5846 15.7028C21.5846 16.1798 21.5846 16.5501 21.5846 16.8137C21.5846 17.0773 21.5846 17.8995 21.5846 19.2802C21.5846 20.7489 21.5846 21.5961 21.5846 21.8221C21.5846 22.0355 21.5846 22.3807 21.5846 22.8576C21.5846 23.3346 21.5846 23.5731 21.5846 23.5731C21.5846 23.5731 21.3105 23.5731 20.7621 23.5731ZM22.4071 23.5731C21.8588 23.5731 21.5846 23.5731 21.5846 23.5731C21.5846 23.5731 21.5846 23.3346 21.5846 22.8576C21.5846 22.3807 21.5846 22.0292 21.5846 21.8032C21.5846 21.5648 21.5846 20.7238 21.5846 19.2802C21.5846 17.8869 21.5846 17.0648 21.5846 16.8137C21.5846 16.5501 21.5846 16.1798 21.5846 15.7028C21.5846 15.2258 21.5846 14.9873 21.5846 14.9873C21.5846 14.9873 21.8588 14.9873 22.4071 14.9873C22.9554 14.9873 23.2295 14.9873 23.2295 14.9873C23.2295 14.9873 23.2295 15.2258 23.2295 15.7028C23.2295 16.1798 23.2295 16.5501 23.2295 16.8137C23.2295 17.0773 23.2295 17.8995 23.2295 19.2802C23.2295 20.7489 23.2295 21.5961 23.2295 21.8221C23.2295 22.0355 23.2295 22.3807 23.2295 22.8576C23.2295 23.3346 23.2295 23.5731 23.2295 23.5731C23.2295 23.5731 22.9554 23.5731 22.4071 23.5731ZM20.7621 3.53966C20.2138 3.53966 19.9397 3.53966 19.9397 3.53966C19.9397 3.53966 19.9397 3.30117 19.9397 2.82418C19.9397 2.34719 19.9397 2.1087 19.9397 2.1087C19.9397 2.1087 20.2138 2.1087 20.7621 2.1087C21.3105 2.1087 21.5846 2.1087 21.5846 2.1087C21.5846 2.1087 21.5846 2.34719 21.5846 2.82418C21.5846 3.30117 21.5846 3.53966 21.5846 3.53966C21.5846 3.53966 21.3105 3.53966 20.7621 3.53966ZM20.7621 2.1087C20.2138 2.1087 19.9397 2.1087 19.9397 2.1087C19.9397 2.1087 19.9397 1.8702 19.9397 1.39322C19.9397 0.916228 19.9397 0.677734 19.9397 0.677734C19.9397 0.677734 20.2138 0.677734 20.7621 0.677734C21.3105 0.677734 21.5846 0.677734 21.5846 0.677734C21.5846 0.677734 21.5846 0.916228 21.5846 1.39322C21.5846 1.8702 21.5846 2.1087 21.5846 2.1087C21.5846 2.1087 21.3105 2.1087 20.7621 2.1087ZM22.4071 3.53966C21.8588 3.53966 21.5846 3.53966 21.5846 3.53966C21.5846 3.53966 21.5846 3.30117 21.5846 2.82418C21.5846 2.34719 21.5846 2.1087 21.5846 2.1087C21.5846 2.1087 21.8588 2.1087 22.4071 2.1087C22.9554 2.1087 23.2295 2.1087 23.2295 2.1087C23.2295 2.1087 23.2295 2.34719 23.2295 2.82418C23.2295 3.30117 23.2295 3.53966 23.2295 3.53966C23.2295 3.53966 22.9554 3.53966 22.4071 3.53966ZM22.4071 2.1087C21.8588 2.1087 21.5846 2.1087 21.5846 2.1087C21.5846 2.1087 21.5846 1.8702 21.5846 1.39322C21.5846 0.916228 21.5846 0.677734 21.5846 0.677734C21.5846 0.677734 21.8588 0.677734 22.4071 0.677734C22.9554 0.677734 23.2295 0.677734 23.2295 0.677734C23.2295 0.677734 23.2295 0.916228 23.2295 1.39322C23.2295 1.8702 23.2295 2.1087 23.2295 2.1087C23.2295 2.1087 22.9554 2.1087 22.4071 2.1087ZM20.7621 26.435C20.2138 26.435 19.9397 26.435 19.9397 26.435C19.9397 26.435 19.9397 26.1966 19.9397 25.7196C19.9397 25.2426 19.9397 25.0041 19.9397 25.0041C19.9397 25.0041 20.2138 25.0041 20.7621 25.0041C21.3105 25.0041 21.5846 25.0041 21.5846 25.0041C21.5846 25.0041 21.5846 25.2426 21.5846 25.7196C21.5846 26.1966 21.5846 26.435 21.5846 26.435C21.5846 26.435 21.3105 26.435 20.7621 26.435ZM20.7621 25.0041C20.2138 25.0041 19.9397 25.0041 19.9397 25.0041C19.9397 25.0041 19.9397 24.7656 19.9397 24.2886C19.9397 23.8116 19.9397 23.5731 19.9397 23.5731C19.9397 23.5731 20.2138 23.5731 20.7621 23.5731C21.3105 23.5731 21.5846 23.5731 21.5846 23.5731C21.5846 23.5731 21.5846 23.8116 21.5846 24.2886C21.5846 24.7656 21.5846 25.0041 21.5846 25.0041C21.5846 25.0041 21.3105 25.0041 20.7621 25.0041ZM22.4071 26.435C21.8588 26.435 21.5846 26.435 21.5846 26.435C21.5846 26.435 21.5846 26.1966 21.5846 25.7196C21.5846 25.2426 21.5846 25.0041 21.5846 25.0041C21.5846 25.0041 21.8588 25.0041 22.4071 25.0041C22.9554 25.0041 23.2295 25.0041 23.2295 25.0041C23.2295 25.0041 23.2295 25.2426 23.2295 25.7196C23.2295 26.1966 23.2295 26.435 23.2295 26.435C23.2295 26.435 22.9554 26.435 22.4071 26.435ZM22.4071 25.0041C21.8588 25.0041 21.5846 25.0041 21.5846 25.0041C21.5846 25.0041 21.5846 24.7656 21.5846 24.2886C21.5846 23.8116 21.5846 23.5731 21.5846 23.5731C21.5846 23.5731 21.8588 23.5731 22.4071 23.5731C22.9554 23.5731 23.2295 23.5731 23.2295 23.5731C23.2295 23.5731 23.2295 23.8116 23.2295 24.2886C23.2295 24.7656 23.2295 25.0041 23.2295 25.0041C23.2295 25.0041 22.9554 25.0041 22.4071 25.0041ZM30.6317 26.435C30.0834 26.435 29.8092 26.435 29.8092 26.435C29.8092 26.435 29.8092 26.1966 29.8092 25.7196C29.8092 25.2426 29.8092 25.0041 29.8092 25.0041C29.8092 25.0041 30.0834 25.0041 30.6317 25.0041C31.18 25.0041 31.4541 25.0041 31.4541 25.0041C31.4541 25.0041 31.4541 25.2426 31.4541 25.7196C31.4541 26.1966 31.4541 26.435 31.4541 26.435C31.4541 26.435 31.18 26.435 30.6317 26.435ZM30.6317 25.0041C30.0834 25.0041 29.8092 25.0041 29.8092 25.0041C29.8092 25.0041 29.8092 24.7656 29.8092 24.2886C29.8092 23.8116 29.8092 23.5731 29.8092 23.5731C29.8092 23.5731 30.0834 23.5731 30.6317 23.5731C31.18 23.5731 31.4541 23.5731 31.4541 23.5731C31.4541 23.5731 31.4541 23.8116 31.4541 24.2886C31.4541 24.7656 31.4541 25.0041 31.4541 25.0041C31.4541 25.0041 31.18 25.0041 30.6317 25.0041ZM32.2766 26.435C31.7283 26.435 31.4541 26.435 31.4541 26.435C31.4541 26.435 31.4541 26.1966 31.4541 25.7196C31.4541 25.2426 31.4541 25.0041 31.4541 25.0041C31.4541 25.0041 31.7283 25.0041 32.2766 25.0041C32.8249 25.0041 33.0991 25.0041 33.0991 25.0041C33.0991 25.0041 33.0991 25.2426 33.0991 25.7196C33.0991 26.1966 33.0991 26.435 33.0991 26.435C33.0991 26.435 32.8249 26.435 32.2766 26.435ZM32.2766 25.0041C31.7283 25.0041 31.4541 25.0041 31.4541 25.0041C31.4541 25.0041 31.4541 24.7656 31.4541 24.2886C31.4541 23.8116 31.4541 23.5731 31.4541 23.5731C31.4541 23.5731 31.7283 23.5731 32.2766 23.5731C32.8249 23.5731 33.0991 23.5731 33.0991 23.5731C33.0991 23.5731 33.0991 23.8116 33.0991 24.2886C33.0991 24.7656 33.0991 25.0041 33.0991 25.0041C33.0991 25.0041 32.8249 25.0041 32.2766 25.0041ZM28.9868 14.9873C28.4385 14.9873 28.1643 14.9873 28.1643 14.9873C28.1643 14.9873 28.1643 14.7489 28.1643 14.2719C28.1643 13.7949 28.1643 13.5564 28.1643 13.5564C28.1643 13.5564 28.4385 13.5564 28.9868 13.5564C29.5351 13.5564 29.8092 13.5564 29.8092 13.5564C29.8092 13.5564 29.8092 13.7949 29.8092 14.2719C29.8092 14.7489 29.8092 14.9873 29.8092 14.9873C29.8092 14.9873 29.5351 14.9873 28.9868 14.9873ZM28.9868 13.5564C28.4385 13.5564 28.1643 13.5564 28.1643 13.5564C28.1643 13.5564 28.1643 13.3179 28.1643 12.8409C28.1643 12.3639 28.1643 12.1254 28.1643 12.1254C28.1643 12.1254 28.4385 12.1254 28.9868 12.1254C29.5351 12.1254 29.8092 12.1254 29.8092 12.1254C29.8092 12.1254 29.8092 12.3639 29.8092 12.8409C29.8092 13.3179 29.8092 13.5564 29.8092 13.5564C29.8092 13.5564 29.5351 13.5564 28.9868 13.5564ZM30.6317 14.9873C30.0834 14.9873 29.8092 14.9873 29.8092 14.9873C29.8092 14.9873 29.8092 14.7489 29.8092 14.2719C29.8092 13.7949 29.8092 13.5564 29.8092 13.5564C29.8092 13.5564 30.0834 13.5564 30.6317 13.5564C31.18 13.5564 31.4541 13.5564 31.4541 13.5564C31.4541 13.5564 31.4541 13.7949 31.4541 14.2719C31.4541 14.7489 31.4541 14.9873 31.4541 14.9873C31.4541 14.9873 31.18 14.9873 30.6317 14.9873ZM30.6317 13.5564C30.0834 13.5564 29.8092 13.5564 29.8092 13.5564C29.8092 13.5564 29.8092 13.3179 29.8092 12.8409C29.8092 12.3639 29.8092 12.1254 29.8092 12.1254C29.8092 12.1254 30.0834 12.1254 30.6317 12.1254C31.18 12.1254 31.4541 12.1254 31.4541 12.1254C31.4541 12.1254 31.4541 12.3639 31.4541 12.8409C31.4541 13.3179 31.4541 13.5564 31.4541 13.5564C31.4541 13.5564 31.18 13.5564 30.6317 13.5564ZM30.6317 3.53966C30.0834 3.53966 29.8092 3.53966 29.8092 3.53966C29.8092 3.53966 29.8092 3.30117 29.8092 2.82418C29.8092 2.34719 29.8092 2.1087 29.8092 2.1087C29.8092 2.1087 30.0834 2.1087 30.6317 2.1087C31.18 2.1087 31.4541 2.1087 31.4541 2.1087C31.4541 2.1087 31.4541 2.34719 31.4541 2.82418C31.4541 3.30117 31.4541 3.53966 31.4541 3.53966C31.4541 3.53966 31.18 3.53966 30.6317 3.53966ZM30.6317 2.1087C30.0834 2.1087 29.8092 2.1087 29.8092 2.1087C29.8092 2.1087 29.8092 1.8702 29.8092 1.39322C29.8092 0.916228 29.8092 0.677734 29.8092 0.677734C29.8092 0.677734 30.0834 0.677734 30.6317 0.677734C31.18 0.677734 31.4541 0.677734 31.4541 0.677734C31.4541 0.677734 31.4541 0.916228 31.4541 1.39322C31.4541 1.8702 31.4541 2.1087 31.4541 2.1087C31.4541 2.1087 31.18 2.1087 30.6317 2.1087ZM32.2766 3.53966C31.7283 3.53966 31.4541 3.53966 31.4541 3.53966C31.4541 3.53966 31.4541 3.30117 31.4541 2.82418C31.4541 2.34719 31.4541 2.1087 31.4541 2.1087C31.4541 2.1087 31.7283 2.1087 32.2766 2.1087C32.8249 2.1087 33.0991 2.1087 33.0991 2.1087C33.0991 2.1087 33.0991 2.34719 33.0991 2.82418C33.0991 3.30117 33.0991 3.53966 33.0991 3.53966C33.0991 3.53966 32.8249 3.53966 32.2766 3.53966ZM32.2766 2.1087C31.7283 2.1087 31.4541 2.1087 31.4541 2.1087C31.4541 2.1087 31.4541 1.8702 31.4541 1.39322C31.4541 0.916228 31.4541 0.677734 31.4541 0.677734C31.4541 0.677734 31.7283 0.677734 32.2766 0.677734C32.8249 0.677734 33.0991 0.677734 33.0991 0.677734C33.0991 0.677734 33.0991 0.916228 33.0991 1.39322C33.0991 1.8702 33.0991 2.1087 33.0991 2.1087C33.0991 2.1087 32.8249 2.1087 32.2766 2.1087ZM28.9868 14.9873C28.4385 14.9873 28.1643 14.9873 28.1643 14.9873C28.1643 14.9873 28.1643 14.7489 28.1643 14.2719C28.1643 13.7949 28.1643 13.5564 28.1643 13.5564C28.1643 13.5564 28.4385 13.5564 28.9868 13.5564C29.5351 13.5564 29.8092 13.5564 29.8092 13.5564C29.8092 13.5564 29.8092 13.7949 29.8092 14.2719C29.8092 14.7489 29.8092 14.9873 29.8092 14.9873C29.8092 14.9873 29.5351 14.9873 28.9868 14.9873ZM28.9868 13.5564C28.4385 13.5564 28.1643 13.5564 28.1643 13.5564C28.1643 13.5564 28.1643 13.3179 28.1643 12.8409C28.1643 12.3639 28.1643 12.1254 28.1643 12.1254C28.1643 12.1254 28.4385 12.1254 28.9868 12.1254C29.5351 12.1254 29.8092 12.1254 29.8092 12.1254C29.8092 12.1254 29.8092 12.3639 29.8092 12.8409C29.8092 13.3179 29.8092 13.5564 29.8092 13.5564C29.8092 13.5564 29.5351 13.5564 28.9868 13.5564ZM30.6317 14.9873C30.0834 14.9873 29.8092 14.9873 29.8092 14.9873C29.8092 14.9873 29.8092 14.7489 29.8092 14.2719C29.8092 13.7949 29.8092 13.5564 29.8092 13.5564C29.8092 13.5564 30.0834 13.5564 30.6317 13.5564C31.18 13.5564 31.4541 13.5564 31.4541 13.5564C31.4541 13.5564 31.4541 13.7949 31.4541 14.2719C31.4541 14.7489 31.4541 14.9873 31.4541 14.9873C31.4541 14.9873 31.18 14.9873 30.6317 14.9873ZM30.6317 13.5564C30.0834 13.5564 29.8092 13.5564 29.8092 13.5564C29.8092 13.5564 29.8092 13.3179 29.8092 12.8409C29.8092 12.3639 29.8092 12.1254 29.8092 12.1254C29.8092 12.1254 30.0834 12.1254 30.6317 12.1254C31.18 12.1254 31.4541 12.1254 31.4541 12.1254C31.4541 12.1254 31.4541 12.3639 31.4541 12.8409C31.4541 13.3179 31.4541 13.5564 31.4541 13.5564C31.4541 13.5564 31.18 13.5564 30.6317 13.5564Z" fill="#374143"/>
<path d="M35.3257 26.435C34.6972 26.435 34.3829 26.435 34.3829 26.435C34.3829 26.435 34.3829 26.2342 34.3829 25.8325C34.3829 25.4434 34.3829 25.2489 34.3829 25.2489C34.3829 25.2489 34.4899 25.0104 34.7039 24.5334C34.9312 24.0313 35.3458 23.1275 35.9476 21.8221C36.5628 20.5041 37.0241 19.5187 37.3317 18.866C37.6393 18.2133 37.9469 17.5731 38.2545 16.9455C38.5621 16.3179 38.8095 15.797 38.9967 15.3827C39.3712 14.592 39.5584 14.1966 39.5584 14.1966C39.5584 14.1966 39.7991 14.297 40.2806 14.4978C40.7486 14.6986 40.9827 14.7991 40.9827 14.7991C40.9827 14.7991 40.7954 15.2007 40.421 16.0041C40.0599 16.7572 39.7724 17.366 39.5584 17.8304C39.3444 18.2823 39.1037 18.7844 38.8362 19.3367C38.3815 20.2781 37.9469 21.1756 37.5323 22.0292C37.1311 22.8702 36.75 23.6735 36.3889 24.4392C36.2017 24.8158 36.1081 25.0041 36.1081 25.0041C36.1081 25.0041 36.5962 25.0041 37.5725 25.0041C38.0405 25.0041 38.4818 25.0041 38.8964 25.0041C39.3244 25.0041 39.9128 25.0041 40.6617 25.0041C41.4106 25.0041 42.2197 25.0041 43.089 25.0041C43.9582 25.0041 44.6403 25.0041 45.1351 25.0041C46.0712 25.0041 46.5393 25.0041 46.5393 25.0041C46.5393 25.0041 46.5393 25.2426 46.5393 25.7196C46.5393 26.1966 46.5393 26.435 46.5393 26.435C46.5393 26.435 46.0712 26.435 45.1351 26.435C45.1351 26.435 44.4263 26.435 43.0087 26.435C41.6045 26.435 40.4143 26.435 39.438 26.435C38.5153 26.435 37.6661 26.435 36.8904 26.435C36.1148 26.435 35.5932 26.435 35.3257 26.435ZM42.8884 12.5961C42.4203 12.3953 42.1863 12.2949 42.1863 12.2949C42.1863 12.2949 42.3735 11.8932 42.748 11.0899C42.8683 10.8263 43.0957 10.3493 43.43 9.65891C43.7643 8.95598 44.0652 8.32836 44.3327 7.77606C44.7874 6.83464 45.2153 5.94342 45.6165 5.10242C46.0311 4.24886 46.4189 3.43924 46.78 2.67355C46.9672 2.29698 47.0609 2.1087 47.0609 2.1087C47.0609 2.1087 46.5727 2.1087 45.5965 2.1087C45.1284 2.1087 44.6804 2.1087 44.2525 2.1087C43.8379 2.1087 43.2561 2.1087 42.5072 2.1087C41.7583 2.1087 41.2033 2.1087 40.8422 2.1087C40.4945 2.1087 39.9128 2.1087 39.097 2.1087C38.1609 2.1087 37.6928 2.1087 37.6928 2.1087C37.6928 2.1087 37.6928 1.8702 37.6928 1.39322C37.6928 0.916228 37.6928 0.677734 37.6928 0.677734C37.6928 0.677734 38.1609 0.677734 39.097 0.677734C39.097 0.677734 39.6253 0.677734 40.6818 0.677734C41.7383 0.677734 42.7546 0.677734 43.7309 0.677734C44.6537 0.677734 45.5029 0.677734 46.2785 0.677734C47.0542 0.677734 47.5757 0.677734 47.8432 0.677734C48.4717 0.677734 48.786 0.677734 48.786 0.677734C48.786 0.677734 48.786 0.878571 48.786 1.28024C48.786 1.66937 48.786 1.86393 48.786 1.86393C48.786 1.86393 48.679 2.10242 48.4651 2.57941C48.2377 3.0815 47.8165 3.99154 47.2013 5.30953C46.5995 6.61497 46.1448 7.59405 45.8372 8.24677C45.5296 8.89949 45.222 9.53966 44.9144 10.1673C44.6068 10.7823 44.3594 11.297 44.1722 11.7112C43.7978 12.502 43.6105 12.8974 43.6105 12.8974C43.6105 12.8974 43.3698 12.797 42.8884 12.5961ZM37.5725 25.0041C36.5962 25.0041 36.1081 25.0041 36.1081 25.0041C36.1081 25.0041 36.2017 24.8158 36.3889 24.4392C36.75 23.6735 37.1311 22.8702 37.5323 22.0292C37.9469 21.1756 38.3815 20.2781 38.8362 19.3367C39.1572 18.6589 39.4113 18.1254 39.5985 17.7363C39.7858 17.3346 40.0599 16.7572 40.421 16.0041C40.7954 15.2007 40.9827 14.7991 40.9827 14.7991C40.9827 14.7991 41.2234 14.8995 41.7048 15.1003C42.1729 15.3012 42.4069 15.4016 42.4069 15.4016C42.4069 15.4016 42.2264 15.797 41.8653 16.5878C41.8653 16.5878 41.7383 16.8639 41.4842 17.4162C41.2434 17.9685 40.8891 18.7342 40.421 19.7133C40.0599 20.5166 39.7189 21.2509 39.3979 21.9162C39.0903 22.5689 38.9098 22.9455 38.8563 23.0459C38.6691 23.3974 38.5755 23.5731 38.5755 23.5731C38.5755 23.5731 38.7894 23.5731 39.2174 23.5731C39.5785 23.5731 39.866 23.5731 40.08 23.5731C40.3073 23.5731 40.6483 23.5731 41.103 23.5731C41.4641 23.5731 42.0993 23.5731 43.0087 23.5731C43.9315 23.5731 44.6403 23.5731 45.1351 23.5731C46.0712 23.5731 46.5393 23.5731 46.5393 23.5731C46.5393 23.5731 46.5393 23.8116 46.5393 24.2886C46.5393 24.7656 46.5393 25.0041 46.5393 25.0041C46.5393 25.0041 46.0712 25.0041 45.1351 25.0041C44.667 25.0041 43.985 25.0041 43.089 25.0041C42.2063 25.0041 41.3906 25.0041 40.6416 25.0041C39.6921 25.0041 39.0302 25.0041 38.6557 25.0041C38.2946 25.0041 37.9335 25.0041 37.5725 25.0041ZM41.4641 11.9936C40.9827 11.7928 40.7419 11.6924 40.7419 11.6924C40.7419 11.6924 40.9292 11.297 41.3036 10.5062C41.3036 10.5062 41.4775 10.1233 41.8252 9.35765C42.1729 8.57941 42.4805 7.92669 42.748 7.39949C43.1492 6.59614 43.4969 5.86811 43.7911 5.21539C44.0853 4.55012 44.2591 4.16727 44.3126 4.06686C44.4999 3.71539 44.5935 3.53966 44.5935 3.53966C44.5935 3.53966 44.3795 3.53966 43.9516 3.53966C43.5905 3.53966 43.2963 3.53966 43.0689 3.53966C42.8549 3.53966 42.5206 3.53966 42.0659 3.53966C41.7048 3.53966 41.2434 3.53966 40.6818 3.53966C40.1201 3.53966 39.5918 3.53966 39.097 3.53966C38.1609 3.53966 37.6928 3.53966 37.6928 3.53966C37.6928 3.53966 37.6928 3.30117 37.6928 2.82418C37.6928 2.34719 37.6928 2.1087 37.6928 2.1087C37.6928 2.1087 38.1609 2.1087 39.097 2.1087C39.525 2.1087 40.0131 2.1087 40.5614 2.1087C41.1231 2.1087 41.7784 2.1087 42.5273 2.1087C43.4768 2.1087 44.1321 2.1087 44.4932 2.1087C44.8676 2.1087 45.2354 2.1087 45.5965 2.1087C46.5727 2.1087 47.0609 2.1087 47.0609 2.1087C47.0609 2.1087 46.9672 2.29698 46.78 2.67355C46.4189 3.43924 46.0311 4.24886 45.6165 5.10242C45.2153 5.95598 44.7874 6.84719 44.3327 7.77606C44.0652 8.32836 43.7643 8.95598 43.43 9.65891C43.0957 10.3493 42.8683 10.8263 42.748 11.0899C42.3735 11.8932 42.1863 12.2949 42.1863 12.2949C42.1863 12.2949 41.9455 12.1945 41.4641 11.9936ZM40.2806 14.4978C39.7991 14.297 39.5584 14.1966 39.5584 14.1966C39.5584 14.1966 39.6587 13.9894 39.8593 13.5752C40.0599 13.161 40.1602 12.9539 40.1602 12.9539C40.1602 12.9539 40.3942 13.0543 40.8623 13.2551C41.3437 13.456 41.5845 13.5564 41.5845 13.5564C41.5845 13.5564 41.4842 13.7635 41.2836 14.1777C41.083 14.592 40.9827 14.7991 40.9827 14.7991C40.9827 14.7991 40.7486 14.6986 40.2806 14.4978ZM41.7048 15.1003C41.2234 14.8995 40.9827 14.7991 40.9827 14.7991C40.9827 14.7991 41.083 14.592 41.2836 14.1777C41.4842 13.7635 41.5845 13.5564 41.5845 13.5564C41.5845 13.5564 41.8252 13.6568 42.3066 13.8576C42.7747 14.0585 43.0087 14.1589 43.0087 14.1589C43.0087 14.1589 42.9084 14.3597 42.7078 14.7614C42.5072 15.1882 42.4069 15.4016 42.4069 15.4016C42.4069 15.4016 42.1729 15.3012 41.7048 15.1003ZM40.8623 13.2551C40.3942 13.0543 40.1602 12.9539 40.1602 12.9539C40.1602 12.9539 40.2538 12.7468 40.441 12.3325C40.6416 11.9058 40.7419 11.6924 40.7419 11.6924C40.7419 11.6924 40.9827 11.7928 41.4641 11.9936C41.9455 12.1945 42.1863 12.2949 42.1863 12.2949C42.1863 12.2949 42.086 12.5083 41.8854 12.935C41.6848 13.3493 41.5845 13.5564 41.5845 13.5564C41.5845 13.5564 41.3437 13.456 40.8623 13.2551ZM42.3066 13.8576C41.8252 13.6568 41.5845 13.5564 41.5845 13.5564C41.5845 13.5564 41.6848 13.3493 41.8854 12.935C42.086 12.5083 42.1863 12.2949 42.1863 12.2949C42.1863 12.2949 42.4203 12.3953 42.8884 12.5961C43.3698 12.797 43.6105 12.8974 43.6105 12.8974C43.6105 12.8974 43.5102 13.1108 43.3096 13.5376C43.109 13.9518 43.0087 14.1589 43.0087 14.1589C43.0087 14.1589 42.7747 14.0585 42.3066 13.8576ZM35.2254 3.53966C34.6771 3.53966 34.403 3.53966 34.403 3.53966C34.403 3.53966 34.403 3.30117 34.403 2.82418C34.403 2.34719 34.403 2.1087 34.403 2.1087C34.403 2.1087 34.6771 2.1087 35.2254 2.1087C35.7737 2.1087 36.0479 2.1087 36.0479 2.1087C36.0479 2.1087 36.0479 2.34719 36.0479 2.82418C36.0479 3.30117 36.0479 3.53966 36.0479 3.53966C36.0479 3.53966 35.7737 3.53966 35.2254 3.53966ZM35.2254 2.1087C34.6771 2.1087 34.403 2.1087 34.403 2.1087C34.403 2.1087 34.403 1.8702 34.403 1.39322C34.403 0.916228 34.403 0.677734 34.403 0.677734C34.403 0.677734 34.6771 0.677734 35.2254 0.677734C35.7737 0.677734 36.0479 0.677734 36.0479 0.677734C36.0479 0.677734 36.0479 0.916228 36.0479 1.39322C36.0479 1.8702 36.0479 2.1087 36.0479 2.1087C36.0479 2.1087 35.7737 2.1087 35.2254 2.1087ZM36.8704 3.53966C36.322 3.53966 36.0479 3.53966 36.0479 3.53966C36.0479 3.53966 36.0479 3.30117 36.0479 2.82418C36.0479 2.34719 36.0479 2.1087 36.0479 2.1087C36.0479 2.1087 36.322 2.1087 36.8704 2.1087C37.4187 2.1087 37.6928 2.1087 37.6928 2.1087C37.6928 2.1087 37.6928 2.34719 37.6928 2.82418C37.6928 3.30117 37.6928 3.53966 37.6928 3.53966C37.6928 3.53966 37.4187 3.53966 36.8704 3.53966ZM36.8704 2.1087C36.322 2.1087 36.0479 2.1087 36.0479 2.1087C36.0479 2.1087 36.0479 1.8702 36.0479 1.39322C36.0479 0.916228 36.0479 0.677734 36.0479 0.677734C36.0479 0.677734 36.322 0.677734 36.8704 0.677734C37.4187 0.677734 37.6928 0.677734 37.6928 0.677734C37.6928 0.677734 37.6928 0.916228 37.6928 1.39322C37.6928 1.8702 37.6928 2.1087 37.6928 2.1087C37.6928 2.1087 37.4187 2.1087 36.8704 2.1087ZM47.3618 26.435C46.8135 26.435 46.5393 26.435 46.5393 26.435C46.5393 26.435 46.5393 26.1966 46.5393 25.7196C46.5393 25.2426 46.5393 25.0041 46.5393 25.0041C46.5393 25.0041 46.8135 25.0041 47.3618 25.0041C47.9101 25.0041 48.1842 25.0041 48.1842 25.0041C48.1842 25.0041 48.1842 25.2426 48.1842 25.7196C48.1842 26.1966 48.1842 26.435 48.1842 26.435C48.1842 26.435 47.9101 26.435 47.3618 26.435ZM47.3618 25.0041C46.8135 25.0041 46.5393 25.0041 46.5393 25.0041C46.5393 25.0041 46.5393 24.7656 46.5393 24.2886C46.5393 23.8116 46.5393 23.5731 46.5393 23.5731C46.5393 23.5731 46.8135 23.5731 47.3618 23.5731C47.9101 23.5731 48.1842 23.5731 48.1842 23.5731C48.1842 23.5731 48.1842 23.8116 48.1842 24.2886C48.1842 24.7656 48.1842 25.0041 48.1842 25.0041C48.1842 25.0041 47.9101 25.0041 47.3618 25.0041ZM49.0067 26.435C48.4584 26.435 48.1842 26.435 48.1842 26.435C48.1842 26.435 48.1842 26.1966 48.1842 25.7196C48.1842 25.2426 48.1842 25.0041 48.1842 25.0041C48.1842 25.0041 48.4584 25.0041 49.0067 25.0041C49.555 25.0041 49.8291 25.0041 49.8291 25.0041C49.8291 25.0041 49.8291 25.2426 49.8291 25.7196C49.8291 26.1966 49.8291 26.435 49.8291 26.435C49.8291 26.435 49.555 26.435 49.0067 26.435ZM49.0067 25.0041C48.4584 25.0041 48.1842 25.0041 48.1842 25.0041C48.1842 25.0041 48.1842 24.7656 48.1842 24.2886C48.1842 23.8116 48.1842 23.5731 48.1842 23.5731C48.1842 23.5731 48.4584 23.5731 49.0067 23.5731C49.555 23.5731 49.8291 23.5731 49.8291 23.5731C49.8291 23.5731 49.8291 23.8116 49.8291 24.2886C49.8291 24.7656 49.8291 25.0041 49.8291 25.0041C49.8291 25.0041 49.555 25.0041 49.0067 25.0041Z" fill="#374143"/>
<path d="M52.8382 14.9874C52.2898 14.9874 52.0157 14.9874 52.0157 14.9874C52.0157 14.9874 52.0023 14.749 51.9756 14.272C51.9622 13.795 51.9555 13.5565 51.9555 13.5565C51.9555 13.5565 52.2364 13.5565 52.798 13.5565C53.333 13.5565 53.6004 13.5565 53.6004 13.5565C53.6004 13.5565 53.6004 13.795 53.6004 14.272C53.6272 14.749 53.6406 14.9874 53.6406 14.9874C53.6406 14.9874 53.3731 14.9874 52.8382 14.9874ZM52.798 13.5565C52.2364 13.5565 51.9555 13.5565 51.9555 13.5565C51.9555 13.5565 51.9622 13.318 51.9756 12.841C52.0023 12.364 52.0157 12.1255 52.0157 12.1255C52.0157 12.1255 52.2765 12.1255 52.798 12.1255C53.3597 12.1255 53.6406 12.1255 53.6406 12.1255C53.6406 12.1255 53.6272 12.364 53.6004 12.841C53.6004 13.318 53.6004 13.5565 53.6004 13.5565C53.6004 13.5565 53.333 13.5565 52.798 13.5565ZM54.5433 14.9874C53.9415 14.9874 53.6406 14.9874 53.6406 14.9874C53.6406 14.9874 53.6272 14.749 53.6004 14.272C53.6004 13.795 53.6004 13.5565 53.6004 13.5565C53.6004 13.5565 53.9013 13.5565 54.5031 13.5565C55.0648 13.5565 55.3457 13.5565 55.3457 13.5565C55.3457 13.5565 55.3523 13.795 55.3657 14.272C55.4058 14.749 55.4259 14.9874 55.4259 14.9874C55.4259 14.9874 55.1317 14.9874 54.5433 14.9874ZM54.5031 13.5565C53.9013 13.5565 53.6004 13.5565 53.6004 13.5565C53.6004 13.5565 53.6004 13.318 53.6004 12.841C53.6272 12.364 53.6406 12.1255 53.6406 12.1255C53.6406 12.1255 53.9281 12.1255 54.5031 12.1255C55.1183 12.1255 55.4259 12.1255 55.4259 12.1255C55.4259 12.1255 55.4058 12.364 55.3657 12.841C55.3523 13.318 55.3457 13.5565 55.3457 13.5565C55.3457 13.5565 55.0648 13.5565 54.5031 13.5565ZM52.8382 12.1255C52.2898 12.1255 52.0157 12.1255 52.0157 12.1255C52.0157 12.1255 52.0424 11.8619 52.0959 11.3347C52.2832 10.0293 52.7111 8.72385 53.3798 7.41841C54.0618 6.10042 54.9511 4.93933 56.0478 3.93515C57.1577 2.91841 58.3814 2.07741 59.7187 1.41213C61.0695 0.73431 62.5806 0.301255 64.2523 0.112971C64.8274 0.0753139 65.1149 0.0564854 65.1149 0.0564854C65.1149 0.0564854 65.1149 0.307531 65.1149 0.809624C65.1149 1.28661 65.1149 1.5251 65.1149 1.5251C65.1149 1.5251 64.8341 1.55021 64.2724 1.60042C62.8682 1.7636 61.5776 2.13389 60.4008 2.7113C59.2239 3.27615 58.1674 3.99163 57.2313 4.85774C56.2952 5.72385 55.5396 6.73431 54.9645 7.88912C54.3895 9.03138 53.995 10.1925 53.781 11.3724C53.7141 11.8745 53.6807 12.1255 53.6807 12.1255C53.6807 12.1255 53.3998 12.1255 52.8382 12.1255ZM54.5433 12.1255C53.9682 12.1255 53.6807 12.1255 53.6807 12.1255C53.6807 12.1255 53.7141 11.8745 53.781 11.3724C53.995 10.1925 54.3895 9.03138 54.9645 7.88912C55.5396 6.73431 56.2952 5.72385 57.2313 4.85774C58.1674 3.99163 59.2239 3.27615 60.4008 2.7113C61.5776 2.13389 62.8682 1.7636 64.2724 1.60042C64.8341 1.55021 65.1149 1.5251 65.1149 1.5251C65.1149 1.5251 65.1149 1.75732 65.1149 2.22176C65.1149 2.74895 65.1149 3.01255 65.1149 3.01255C65.1149 3.01255 64.8407 3.04393 64.2924 3.10669C63.1022 3.29498 61.9922 3.62762 60.9625 4.1046C59.9327 4.56904 59.0434 5.16527 58.2945 5.89331C57.5456 6.62134 56.9438 7.4749 56.4891 8.45398C56.0344 9.4205 55.7201 10.4121 55.5463 11.4289C55.466 11.8933 55.4259 12.1255 55.4259 12.1255C55.4259 12.1255 55.1317 12.1255 54.5433 12.1255ZM65.9775 2.93724C65.4024 2.98745 65.1149 3.01255 65.1149 3.01255C65.1149 3.01255 65.1149 2.74268 65.1149 2.20293C65.1149 1.75105 65.1149 1.5251 65.1149 1.5251C65.1149 1.5251 65.3957 1.5 65.9574 1.44979C66.4924 1.43724 66.7598 1.43096 66.7598 1.43096C66.7598 1.43096 66.7598 1.67573 66.7598 2.16527C66.7598 2.66736 66.7598 2.91841 66.7598 2.91841C66.7598 2.91841 66.499 2.92469 65.9775 2.93724ZM65.9574 1.44979C65.3957 1.5 65.1149 1.5251 65.1149 1.5251C65.1149 1.5251 65.1149 1.29289 65.1149 0.828452C65.1149 0.313808 65.1149 0.0564854 65.1149 0.0564854C65.1149 0.0564854 65.3891 0.0439331 65.9374 0.0188285C66.4857 0.0062762 66.7598 0 66.7598 0C66.7598 0 66.7598 0.251046 66.7598 0.753138C66.7598 1.20502 66.7598 1.43096 66.7598 1.43096C66.7598 1.43096 66.4924 1.43724 65.9574 1.44979ZM67.5422 2.93724C67.0206 2.92469 66.7598 2.91841 66.7598 2.91841C66.7598 2.91841 66.7598 2.66736 66.7598 2.16527C66.7598 1.67573 66.7598 1.43096 66.7598 1.43096C66.7598 1.43096 67.0273 1.43724 67.5622 1.44979C68.1239 1.48745 68.4047 1.50628 68.4047 1.50628C68.4047 1.50628 68.4047 1.74477 68.4047 2.22176C68.4047 2.74895 68.4047 3.01255 68.4047 3.01255C68.4047 3.01255 68.1172 2.98745 67.5422 2.93724ZM67.5622 1.44979C67.0273 1.43724 66.7598 1.43096 66.7598 1.43096C66.7598 1.43096 66.7598 1.20502 66.7598 0.753138C66.7598 0.251046 66.7598 0 66.7598 0C66.7598 0 67.034 0.0062762 67.5823 0.0188285C68.1306 0.0564854 68.4047 0.0753139 68.4047 0.0753139C68.4047 0.0753139 68.4047 0.320084 68.4047 0.809624C68.4047 1.27406 68.4047 1.50628 68.4047 1.50628C68.4047 1.50628 68.1239 1.48745 67.5622 1.44979ZM80.6815 12.1255C80.0931 12.1255 79.7989 12.1255 79.7989 12.1255C79.7989 12.1255 79.7654 11.8808 79.6986 11.3912C79.4445 10.0481 78.963 8.79916 78.2542 7.64435C77.5454 6.48954 76.6561 5.46025 75.5862 4.55649C74.7571 3.841 73.8611 3.23222 72.8982 2.73013C71.9353 2.22803 70.7518 1.85774 69.3476 1.61925C68.719 1.54393 68.4047 1.50628 68.4047 1.50628C68.4047 1.50628 68.4047 1.31172 68.4047 0.922594C68.4047 0.357741 68.4047 0.0753139 68.4047 0.0753139C68.4047 0.0753139 68.7257 0.106695 69.3676 0.169456C70.7183 0.345188 72.0022 0.702929 73.2192 1.24268C74.4361 1.76987 75.5862 2.47908 76.6695 3.37029C77.9132 4.37448 78.9563 5.56067 79.7989 6.92887C80.6547 8.28452 81.1964 9.74686 81.4237 11.3159C81.4772 11.8556 81.504 12.1255 81.504 12.1255C81.504 12.1255 81.2298 12.1255 80.6815 12.1255ZM78.9764 12.1255C78.388 12.1255 78.0937 12.1255 78.0937 12.1255C78.0937 12.1255 78.0536 11.8996 77.9734 11.4477C77.7728 10.3556 77.3783 9.32008 76.7898 8.341C76.2148 7.34937 75.4859 6.46444 74.6033 5.68619C73.734 4.9205 72.8982 4.34937 72.0958 3.9728C71.3068 3.58368 70.3506 3.29498 69.2272 3.10669C68.6789 3.04393 68.4047 3.01255 68.4047 3.01255C68.4047 3.01255 68.4047 2.76151 68.4047 2.25941C68.4047 1.75732 68.4047 1.50628 68.4047 1.50628C68.4047 1.50628 68.719 1.54393 69.3476 1.61925C70.7518 1.85774 71.9353 2.22803 72.8982 2.73013C73.8611 3.23222 74.7571 3.841 75.5862 4.55649C76.6561 5.46025 77.5454 6.48954 78.2542 7.64435C78.963 8.79916 79.4445 10.0481 79.6986 11.3912C79.7654 11.8808 79.7989 12.1255 79.7989 12.1255C79.7989 12.1255 79.5247 12.1255 78.9764 12.1255ZM78.9764 14.9874C78.388 14.9874 78.0937 14.9874 78.0937 14.9874C78.0937 14.9874 78.1138 14.749 78.1539 14.272C78.1673 13.795 78.174 13.5565 78.174 13.5565C78.174 13.5565 78.4548 13.5565 79.0165 13.5565C79.5916 13.5565 79.8791 13.5565 79.8791 13.5565C79.8791 13.5565 79.8791 13.795 79.8791 14.272C79.8523 14.749 79.839 14.9874 79.839 14.9874C79.839 14.9874 79.5514 14.9874 78.9764 14.9874ZM79.0165 13.5565C78.4548 13.5565 78.174 13.5565 78.174 13.5565C78.174 13.5565 78.1673 13.318 78.1539 12.841C78.1138 12.364 78.0937 12.1255 78.0937 12.1255C78.0937 12.1255 78.4013 12.1255 79.0165 12.1255C79.5782 12.1255 79.859 12.1255 79.859 12.1255C79.859 12.1255 79.8657 12.364 79.8791 12.841C79.8791 13.318 79.8791 13.5565 79.8791 13.5565C79.8791 13.5565 79.5916 13.5565 79.0165 13.5565ZM80.6815 14.9874C80.1198 14.9874 79.839 14.9874 79.839 14.9874C79.839 14.9874 79.8523 14.749 79.8791 14.272C79.8791 13.795 79.8791 13.5565 79.8791 13.5565C79.8791 13.5565 80.1599 13.5565 80.7216 13.5565C81.2833 13.5565 81.5641 13.5565 81.5641 13.5565C81.5641 13.5565 81.5574 13.795 81.5441 14.272C81.5173 14.749 81.504 14.9874 81.504 14.9874C81.504 14.9874 81.2298 14.9874 80.6815 14.9874ZM80.7216 13.5565C80.1599 13.5565 79.8791 13.5565 79.8791 13.5565C79.8791 13.5565 79.8791 13.318 79.8791 12.841C79.8657 12.364 79.859 12.1255 79.859 12.1255C79.859 12.1255 80.1466 12.1255 80.7216 12.1255C81.2432 12.1255 81.504 12.1255 81.504 12.1255C81.504 12.1255 81.5173 12.364 81.5441 12.841C81.5574 13.318 81.5641 13.5565 81.5641 13.5565C81.5641 13.5565 81.2833 13.5565 80.7216 13.5565ZM69.4278 26.8305C68.7458 26.8808 68.4047 26.9059 68.4047 26.9059C68.4047 26.9059 68.4047 26.6799 68.4047 26.228C68.4047 25.7636 68.4047 25.5314 68.4047 25.5314C68.4047 25.5314 68.7257 25.4937 69.3676 25.4184C70.5445 25.2301 71.7347 24.8473 72.9383 24.2699C74.1553 23.6925 75.2318 22.977 76.168 22.1234C77.1041 21.2699 77.8798 20.2908 78.4949 19.1862C79.1101 18.069 79.5247 16.9142 79.7387 15.7218C79.8055 15.2322 79.839 14.9874 79.839 14.9874C79.839 14.9874 80.1198 14.9874 80.6815 14.9874C81.2298 14.9874 81.504 14.9874 81.504 14.9874C81.504 14.9874 81.4772 15.251 81.4237 15.7782C81.2365 17.0837 80.7818 18.3766 80.0596 19.6569C79.3508 20.9247 78.4481 22.0607 77.3515 23.0649C76.2415 24.0816 74.9711 24.9289 73.5401 25.6067C72.1092 26.272 70.7384 26.6799 69.4278 26.8305ZM69.3676 25.4184C68.7257 25.4937 68.4047 25.5314 68.4047 25.5314C68.4047 25.5314 68.4047 25.2992 68.4047 24.8347C68.4047 24.3452 68.4047 24.1004 68.4047 24.1004C68.4047 24.1004 68.6789 24.0753 69.2272 24.0251C70.4174 23.8243 71.5074 23.4728 72.497 22.9707C73.4866 22.4561 74.3559 21.8347 75.1048 21.1067C75.8537 20.3787 76.4756 19.5502 76.9704 18.6213C77.4652 17.6799 77.7995 16.7008 77.9734 15.6841C78.0536 15.2197 78.0937 14.9874 78.0937 14.9874C78.0937 14.9874 78.388 14.9874 78.9764 14.9874C79.5514 14.9874 79.839 14.9874 79.839 14.9874C79.839 14.9874 79.8055 15.2322 79.7387 15.7218C79.5247 16.9142 79.1101 18.069 78.4949 19.1862C77.8798 20.2908 77.1041 21.2699 76.168 22.1234C75.2318 22.977 74.1553 23.6925 72.9383 24.2699C71.7347 24.8473 70.5445 25.2301 69.3676 25.4184ZM65.9374 26.9623C65.3891 26.9247 65.1149 26.9059 65.1149 26.9059C65.1149 26.9059 65.1149 26.6674 65.1149 26.1904C65.1149 25.7259 65.1149 25.4937 65.1149 25.4937C65.1149 25.4937 65.3957 25.5251 65.9574 25.5879C66.4924 25.6004 66.7598 25.6067 66.7598 25.6067C66.7598 25.6067 66.7598 25.8264 66.7598 26.2657C66.7598 26.7427 66.7598 26.9812 66.7598 26.9812C66.7598 26.9812 66.4857 26.9749 65.9374 26.9623ZM65.9574 25.5879C65.3957 25.5251 65.1149 25.4937 65.1149 25.4937C65.1149 25.4937 65.1149 25.2866 65.1149 24.8724C65.1149 24.3577 65.1149 24.1004 65.1149 24.1004C65.1149 24.1004 65.4024 24.1255 65.9775 24.1757C66.499 24.1883 66.7598 24.1946 66.7598 24.1946C66.7598 24.1946 66.7598 24.4331 66.7598 24.91C66.7598 25.3745 66.7598 25.6067 66.7598 25.6067C66.7598 25.6067 66.4924 25.6004 65.9574 25.5879ZM67.5823 26.9623C67.034 26.9749 66.7598 26.9812 66.7598 26.9812C66.7598 26.9812 66.7598 26.7427 66.7598 26.2657C66.7598 25.8264 66.7598 25.6067 66.7598 25.6067C66.7598 25.6067 67.0273 25.6004 67.5622 25.5879C68.1239 25.5377 68.4047 25.5126 68.4047 25.5126C68.4047 25.5126 68.4047 25.7385 68.4047 26.1904C68.4047 26.6674 68.4047 26.9059 68.4047 26.9059C68.4047 26.9059 68.1306 26.9247 67.5823 26.9623ZM67.5622 25.5879C67.0273 25.6004 66.7598 25.6067 66.7598 25.6067C66.7598 25.6067 66.7598 25.3745 66.7598 24.91C66.7598 24.4331 66.7598 24.1946 66.7598 24.1946C66.7598 24.1946 67.0206 24.1883 67.5422 24.1757C68.1172 24.1255 68.4047 24.1004 68.4047 24.1004C68.4047 24.1004 68.4047 24.3515 68.4047 24.8536C68.4047 25.2929 68.4047 25.5126 68.4047 25.5126C68.4047 25.5126 68.1239 25.5377 67.5622 25.5879ZM64.2523 26.8117C62.8615 26.5983 61.5375 26.2469 60.2804 25.7573C59.0233 25.2678 57.8532 24.5837 56.7699 23.705C55.5262 22.7134 54.4898 21.5335 53.6606 20.1653C52.8448 18.7971 52.3233 17.3347 52.0959 15.7782C52.0424 15.251 52.0157 14.9874 52.0157 14.9874C52.0157 14.9874 52.2898 14.9874 52.8382 14.9874C53.4266 14.9874 53.7208 14.9874 53.7208 14.9874C53.7208 14.9874 53.7542 15.2322 53.8211 15.7218C54.0752 17.0649 54.5433 18.3264 55.2253 19.5063C55.9073 20.6862 56.7833 21.728 57.8532 22.6318C58.6823 23.3473 59.6184 23.9247 60.6616 24.364C61.7047 24.8033 62.8749 25.1423 64.1721 25.3808C64.8006 25.4686 65.1149 25.5126 65.1149 25.5126C65.1149 25.5126 65.1149 25.7385 65.1149 26.1904C65.1149 26.6674 65.1149 26.9059 65.1149 26.9059C65.1149 26.9059 64.8274 26.8745 64.2523 26.8117ZM64.1721 25.3808C62.8749 25.1423 61.7047 24.8033 60.6616 24.364C59.6184 23.9247 58.6823 23.3473 57.8532 22.6318C56.7833 21.728 55.9073 20.6862 55.2253 19.5063C54.5433 18.3264 54.0752 17.0649 53.8211 15.7218C53.7542 15.2322 53.7208 14.9874 53.7208 14.9874C53.7208 14.9874 53.9949 14.9874 54.5433 14.9874C55.1317 14.9874 55.4259 14.9874 55.4259 14.9874C55.4259 14.9874 55.466 15.2134 55.5463 15.6653C55.7469 16.7573 56.1213 17.8117 56.6696 18.8285C57.2313 19.8326 57.9535 20.7239 58.8361 21.5021C59.7054 22.2678 60.5479 22.8389 61.3637 23.2155C62.1794 23.5795 63.1624 23.8494 64.3125 24.0251C64.8474 24.0753 65.1149 24.1004 65.1149 24.1004C65.1149 24.1004 65.1149 24.3515 65.1149 24.8536C65.1149 25.2929 65.1149 25.5126 65.1149 25.5126C65.1149 25.5126 64.8006 25.4686 64.1721 25.3808Z" fill="#374143"/>
<path d="M91.0525 26.435C90.21 26.435 89.7887 26.435 89.7887 26.435C89.7887 26.435 89.7887 26.1966 89.7887 25.7196C89.7887 25.2426 89.7887 25.0041 89.7887 25.0041C89.7887 25.0041 90.21 25.0041 91.0525 25.0041C91.9485 25.0041 92.6038 25.0041 93.0184 25.0041C93.433 25.0041 94.0682 25.0041 94.9241 25.0041C95.887 25.0041 96.3684 25.0041 96.3684 25.0041C96.3684 25.0041 96.3684 25.2426 96.3684 25.7196C96.3684 26.1966 96.3684 26.435 96.3684 26.435C96.3684 26.435 95.887 26.435 94.9241 26.435C94.0682 26.435 93.433 26.435 93.0184 26.435C92.6038 26.435 91.9485 26.435 91.0525 26.435ZM91.0525 25.0041C90.21 25.0041 89.7887 25.0041 89.7887 25.0041C89.7887 25.0041 89.7887 24.7656 89.7887 24.2886C89.7887 23.8116 89.7887 23.5731 89.7887 23.5731C89.7887 23.5731 90.21 23.5731 91.0525 23.5731C91.9485 23.5731 92.6038 23.5731 93.0184 23.5731C93.433 23.5731 94.0682 23.5731 94.9241 23.5731C95.887 23.5731 96.3684 23.5731 96.3684 23.5731C96.3684 23.5731 96.3684 23.8116 96.3684 24.2886C96.3684 24.7656 96.3684 25.0041 96.3684 25.0041C96.3684 25.0041 95.887 25.0041 94.9241 25.0041C94.0682 25.0041 93.433 25.0041 93.0184 25.0041C92.6038 25.0041 91.9485 25.0041 91.0525 25.0041ZM87.3214 26.435C86.7731 26.435 86.4989 26.435 86.4989 26.435C86.4989 26.435 86.4989 26.1966 86.4989 25.7196C86.4989 25.2426 86.4989 25.0041 86.4989 25.0041C86.4989 25.0041 86.7731 25.0041 87.3214 25.0041C87.8697 25.0041 88.1438 25.0041 88.1438 25.0041C88.1438 25.0041 88.1438 25.2426 88.1438 25.7196C88.1438 26.1966 88.1438 26.435 88.1438 26.435C88.1438 26.435 87.8697 26.435 87.3214 26.435ZM87.3214 25.0041C86.7731 25.0041 86.4989 25.0041 86.4989 25.0041C86.4989 25.0041 86.4989 24.7656 86.4989 24.2886C86.4989 23.8116 86.4989 23.5731 86.4989 23.5731C86.4989 23.5731 86.7731 23.5731 87.3214 23.5731C87.8697 23.5731 88.1438 23.5731 88.1438 23.5731C88.1438 23.5731 88.1438 23.8116 88.1438 24.2886C88.1438 24.7656 88.1438 25.0041 88.1438 25.0041C88.1438 25.0041 87.8697 25.0041 87.3214 25.0041ZM88.9663 26.435C88.418 26.435 88.1438 26.435 88.1438 26.435C88.1438 26.435 88.1438 26.1966 88.1438 25.7196C88.1438 25.2426 88.1438 25.0041 88.1438 25.0041C88.1438 25.0041 88.418 25.0041 88.9663 25.0041C89.5146 25.0041 89.7887 25.0041 89.7887 25.0041C89.7887 25.0041 89.7887 25.2426 89.7887 25.7196C89.7887 26.1966 89.7887 26.435 89.7887 26.435C89.7887 26.435 89.5146 26.435 88.9663 26.435ZM88.9663 25.0041C88.418 25.0041 88.1438 25.0041 88.1438 25.0041C88.1438 25.0041 88.1438 24.7656 88.1438 24.2886C88.1438 23.8116 88.1438 23.5731 88.1438 23.5731C88.1438 23.5731 88.418 23.5731 88.9663 23.5731C89.5146 23.5731 89.7887 23.5731 89.7887 23.5731C89.7887 23.5731 89.7887 23.8116 89.7887 24.2886C89.7887 24.7656 89.7887 25.0041 89.7887 25.0041C89.7887 25.0041 89.5146 25.0041 88.9663 25.0041ZM87.3214 3.53966C86.7731 3.53966 86.4989 3.53966 86.4989 3.53966C86.4989 3.53966 86.4989 3.30117 86.4989 2.82418C86.4989 2.34719 86.4989 2.1087 86.4989 2.1087C86.4989 2.1087 86.7731 2.1087 87.3214 2.1087C87.8697 2.1087 88.1438 2.1087 88.1438 2.1087C88.1438 2.1087 88.1438 2.34719 88.1438 2.82418C88.1438 3.30117 88.1438 3.53966 88.1438 3.53966C88.1438 3.53966 87.8697 3.53966 87.3214 3.53966ZM87.3214 2.1087C86.7731 2.1087 86.4989 2.1087 86.4989 2.1087C86.4989 2.1087 86.4989 1.8702 86.4989 1.39322C86.4989 0.916228 86.4989 0.677734 86.4989 0.677734C86.4989 0.677734 86.7731 0.677734 87.3214 0.677734C87.8697 0.677734 88.1438 0.677734 88.1438 0.677734C88.1438 0.677734 88.1438 0.916228 88.1438 1.39322C88.1438 1.8702 88.1438 2.1087 88.1438 2.1087C88.1438 2.1087 87.8697 2.1087 87.3214 2.1087ZM88.9663 3.53966C88.418 3.53966 88.1438 3.53966 88.1438 3.53966C88.1438 3.53966 88.1438 3.30117 88.1438 2.82418C88.1438 2.34719 88.1438 2.1087 88.1438 2.1087C88.1438 2.1087 88.418 2.1087 88.9663 2.1087C89.5146 2.1087 89.7887 2.1087 89.7887 2.1087C89.7887 2.1087 89.7887 2.34719 89.7887 2.82418C89.7887 3.30117 89.7887 3.53966 89.7887 3.53966C89.7887 3.53966 89.5146 3.53966 88.9663 3.53966ZM88.9663 2.1087C88.418 2.1087 88.1438 2.1087 88.1438 2.1087C88.1438 2.1087 88.1438 1.8702 88.1438 1.39322C88.1438 0.916228 88.1438 0.677734 88.1438 0.677734C88.1438 0.677734 88.418 0.677734 88.9663 0.677734C89.5146 0.677734 89.7887 0.677734 89.7887 0.677734C89.7887 0.677734 89.7887 0.916228 89.7887 1.39322C89.7887 1.8702 89.7887 2.1087 89.7887 2.1087C89.7887 2.1087 89.5146 2.1087 88.9663 2.1087ZM87.3214 12.1254C86.7731 12.1254 86.4989 12.1254 86.4989 12.1254C86.4989 12.1254 86.4989 11.8869 86.4989 11.4099C86.4989 10.933 86.4989 10.5689 86.4989 10.3179C86.4989 10.0543 86.4989 9.20075 86.4989 7.75723C86.4989 6.36393 86.4989 5.5543 86.4989 5.32836C86.4989 5.08987 86.4989 4.73213 86.4989 4.25514C86.4989 3.77815 86.4989 3.53966 86.4989 3.53966C86.4989 3.53966 86.7731 3.53966 87.3214 3.53966C87.8697 3.53966 88.1438 3.53966 88.1438 3.53966C88.1438 3.53966 88.1438 3.77815 88.1438 4.25514C88.1438 4.73213 88.1438 5.08987 88.1438 5.32836C88.1438 5.56686 88.1438 6.37648 88.1438 7.75723C88.1438 9.22585 88.1438 10.0857 88.1438 10.3367C88.1438 10.5752 88.1438 10.933 88.1438 11.4099C88.1438 11.8869 88.1438 12.1254 88.1438 12.1254C88.1438 12.1254 87.8697 12.1254 87.3214 12.1254ZM88.9663 12.1254C88.418 12.1254 88.1438 12.1254 88.1438 12.1254C88.1438 12.1254 88.1438 11.8869 88.1438 11.4099C88.1438 10.933 88.1438 10.5689 88.1438 10.3179C88.1438 10.0543 88.1438 9.20075 88.1438 7.75723C88.1438 6.36393 88.1438 5.5543 88.1438 5.32836C88.1438 5.08987 88.1438 4.73213 88.1438 4.25514C88.1438 3.77815 88.1438 3.53966 88.1438 3.53966C88.1438 3.53966 88.418 3.53966 88.9663 3.53966C89.5146 3.53966 89.7887 3.53966 89.7887 3.53966C89.7887 3.53966 89.7887 3.77815 89.7887 4.25514C89.7887 4.73213 89.7887 5.08987 89.7887 5.32836C89.7887 5.56686 89.7887 6.37648 89.7887 7.75723C89.7887 9.22585 89.7887 10.0857 89.7887 10.3367C89.7887 10.5752 89.7887 10.933 89.7887 11.4099C89.7887 11.8869 89.7887 12.1254 89.7887 12.1254C89.7887 12.1254 89.5146 12.1254 88.9663 12.1254ZM87.3214 23.5731C86.7731 23.5731 86.4989 23.5731 86.4989 23.5731C86.4989 23.5731 86.4989 23.3346 86.4989 22.8576C86.4989 22.3807 86.4989 22.0292 86.4989 21.8032C86.4989 21.5648 86.4989 20.7238 86.4989 19.2802C86.4989 17.8869 86.4989 17.0648 86.4989 16.8137C86.4989 16.5501 86.4989 16.1798 86.4989 15.7028C86.4989 15.2258 86.4989 14.9873 86.4989 14.9873C86.4989 14.9873 86.7731 14.9873 87.3214 14.9873C87.8697 14.9873 88.1438 14.9873 88.1438 14.9873C88.1438 14.9873 88.1438 15.2258 88.1438 15.7028C88.1438 16.1798 88.1438 16.5501 88.1438 16.8137C88.1438 17.0773 88.1438 17.8995 88.1438 19.2802C88.1438 20.7489 88.1438 21.5961 88.1438 21.8221C88.1438 22.0355 88.1438 22.3807 88.1438 22.8576C88.1438 23.3346 88.1438 23.5731 88.1438 23.5731C88.1438 23.5731 87.8697 23.5731 87.3214 23.5731ZM88.9663 23.5731C88.418 23.5731 88.1438 23.5731 88.1438 23.5731C88.1438 23.5731 88.1438 23.3346 88.1438 22.8576C88.1438 22.3807 88.1438 22.0292 88.1438 21.8032C88.1438 21.5648 88.1438 20.7238 88.1438 19.2802C88.1438 17.8869 88.1438 17.0648 88.1438 16.8137C88.1438 16.5501 88.1438 16.1798 88.1438 15.7028C88.1438 15.2258 88.1438 14.9873 88.1438 14.9873C88.1438 14.9873 88.418 14.9873 88.9663 14.9873C89.5146 14.9873 89.7887 14.9873 89.7887 14.9873C89.7887 14.9873 89.7887 15.2258 89.7887 15.7028C89.7887 16.1798 89.7887 16.5501 89.7887 16.8137C89.7887 17.0773 89.7887 17.8995 89.7887 19.2802C89.7887 20.7489 89.7887 21.5961 89.7887 21.8221C89.7887 22.0355 89.7887 22.3807 89.7887 22.8576C89.7887 23.3346 89.7887 23.5731 89.7887 23.5731C89.7887 23.5731 89.5146 23.5731 88.9663 23.5731ZM87.3214 14.9873C86.7731 14.9873 86.4989 14.9873 86.4989 14.9873C86.4989 14.9873 86.4989 14.7489 86.4989 14.2719C86.4989 13.7949 86.4989 13.5564 86.4989 13.5564C86.4989 13.5564 86.7731 13.5564 87.3214 13.5564C87.8697 13.5564 88.1438 13.5564 88.1438 13.5564C88.1438 13.5564 88.1438 13.7949 88.1438 14.2719C88.1438 14.7489 88.1438 14.9873 88.1438 14.9873C88.1438 14.9873 87.8697 14.9873 87.3214 14.9873ZM87.3214 13.5564C86.7731 13.5564 86.4989 13.5564 86.4989 13.5564C86.4989 13.5564 86.4989 13.3179 86.4989 12.8409C86.4989 12.3639 86.4989 12.1254 86.4989 12.1254C86.4989 12.1254 86.7731 12.1254 87.3214 12.1254C87.8697 12.1254 88.1438 12.1254 88.1438 12.1254C88.1438 12.1254 88.1438 12.3639 88.1438 12.8409C88.1438 13.3179 88.1438 13.5564 88.1438 13.5564C88.1438 13.5564 87.8697 13.5564 87.3214 13.5564ZM88.9663 14.9873C88.418 14.9873 88.1438 14.9873 88.1438 14.9873C88.1438 14.9873 88.1438 14.7489 88.1438 14.2719C88.1438 13.7949 88.1438 13.5564 88.1438 13.5564C88.1438 13.5564 88.418 13.5564 88.9663 13.5564C89.5146 13.5564 89.7887 13.5564 89.7887 13.5564C89.7887 13.5564 89.7887 13.7949 89.7887 14.2719C89.7887 14.7489 89.7887 14.9873 89.7887 14.9873C89.7887 14.9873 89.5146 14.9873 88.9663 14.9873ZM88.9663 13.5564C88.418 13.5564 88.1438 13.5564 88.1438 13.5564C88.1438 13.5564 88.1438 13.3179 88.1438 12.8409C88.1438 12.3639 88.1438 12.1254 88.1438 12.1254C88.1438 12.1254 88.418 12.1254 88.9663 12.1254C89.5146 12.1254 89.7887 12.1254 89.7887 12.1254C89.7887 12.1254 89.7887 12.3639 89.7887 12.8409C89.7887 13.3179 89.7887 13.5564 89.7887 13.5564C89.7887 13.5564 89.5146 13.5564 88.9663 13.5564ZM97.1909 26.435C96.6426 26.435 96.3684 26.435 96.3684 26.435C96.3684 26.435 96.3684 26.1966 96.3684 25.7196C96.3684 25.2426 96.3684 25.0041 96.3684 25.0041C96.3684 25.0041 96.6426 25.0041 97.1909 25.0041C97.7392 25.0041 98.0134 25.0041 98.0134 25.0041C98.0134 25.0041 98.0134 25.2426 98.0134 25.7196C98.0134 26.1966 98.0134 26.435 98.0134 26.435C98.0134 26.435 97.7392 26.435 97.1909 26.435ZM97.1909 25.0041C96.6426 25.0041 96.3684 25.0041 96.3684 25.0041C96.3684 25.0041 96.3684 24.7656 96.3684 24.2886C96.3684 23.8116 96.3684 23.5731 96.3684 23.5731C96.3684 23.5731 96.6426 23.5731 97.1909 23.5731C97.7392 23.5731 98.0134 23.5731 98.0134 23.5731C98.0134 23.5731 98.0134 23.8116 98.0134 24.2886C98.0134 24.7656 98.0134 25.0041 98.0134 25.0041C98.0134 25.0041 97.7392 25.0041 97.1909 25.0041ZM98.8358 26.435C98.2875 26.435 98.0134 26.435 98.0134 26.435C98.0134 26.435 98.0134 26.1966 98.0134 25.7196C98.0134 25.2426 98.0134 25.0041 98.0134 25.0041C98.0134 25.0041 98.2875 25.0041 98.8358 25.0041C99.3841 25.0041 99.6583 25.0041 99.6583 25.0041C99.6583 25.0041 99.6583 25.2426 99.6583 25.7196C99.6583 26.1966 99.6583 26.435 99.6583 26.435C99.6583 26.435 99.3841 26.435 98.8358 26.435ZM98.8358 25.0041C98.2875 25.0041 98.0134 25.0041 98.0134 25.0041C98.0134 25.0041 98.0134 24.7656 98.0134 24.2886C98.0134 23.8116 98.0134 23.5731 98.0134 23.5731C98.0134 23.5731 98.2875 23.5731 98.8358 23.5731C99.3841 23.5731 99.6583 23.5731 99.6583 23.5731C99.6583 23.5731 99.6583 23.8116 99.6583 24.2886C99.6583 24.7656 99.6583 25.0041 99.6583 25.0041C99.6583 25.0041 99.3841 25.0041 98.8358 25.0041Z" fill="#374143"/>
<path d="M110.37 26.774C107.936 26.2844 106.078 25.3304 104.794 23.912C103.51 22.4811 102.868 20.071 102.868 16.6819C102.868 15.5522 102.868 14.9873 102.868 14.9873C102.868 14.9873 103.142 14.9873 103.69 14.9873C104.239 14.9873 104.513 14.9873 104.513 14.9873C104.513 14.9873 104.513 15.6338 104.513 16.9267C104.513 19.4497 104.994 21.3514 105.957 22.6317C106.92 23.8995 108.404 24.8095 110.41 25.3618C111.119 25.4622 111.474 25.5125 111.474 25.5125C111.474 25.5125 111.474 25.7447 111.474 26.2091C111.474 26.6861 111.474 26.9246 111.474 26.9246C111.474 26.9246 111.106 26.8744 110.37 26.774ZM110.41 25.3618C108.404 24.8095 106.92 23.8995 105.957 22.6317C104.994 21.3514 104.513 19.4497 104.513 16.9267C104.513 15.6338 104.513 14.9873 104.513 14.9873C104.513 14.9873 104.787 14.9873 105.335 14.9873C105.884 14.9873 106.158 14.9873 106.158 14.9873C106.158 14.9873 106.158 15.7154 106.158 17.1714C106.158 19.0668 106.492 20.5417 107.161 21.5961C107.843 22.638 108.966 23.4162 110.531 23.9309C111.159 24.0564 111.474 24.1191 111.474 24.1191C111.474 24.1191 111.474 24.3451 111.474 24.797C111.474 25.274 111.474 25.5125 111.474 25.5125C111.474 25.5125 111.119 25.4622 110.41 25.3618ZM115.867 26.774C115.131 26.8744 114.764 26.9246 114.764 26.9246C114.764 26.9246 114.764 26.6861 114.764 26.2091C114.764 25.7572 114.764 25.5313 114.764 25.5313C114.764 25.5313 115.118 25.4685 115.827 25.343C117.833 24.8032 119.31 23.8807 120.26 22.5752C121.223 21.2698 121.704 19.3869 121.704 16.9267C121.704 15.6338 121.704 14.9873 121.704 14.9873C121.704 14.9873 121.978 14.9873 122.527 14.9873C123.075 14.9873 123.349 14.9873 123.349 14.9873C123.349 14.9873 123.349 15.5522 123.349 16.6819C123.349 20.071 122.707 22.4811 121.423 23.912C120.153 25.3304 118.301 26.2844 115.867 26.774ZM115.827 25.343C115.118 25.4685 114.764 25.5313 114.764 25.5313C114.764 25.5313 114.764 25.3116 114.764 24.8723C114.764 24.3702 114.764 24.1191 114.764 24.1191C114.764 24.1191 115.078 24.0564 115.706 23.9309C117.271 23.4162 118.388 22.638 119.056 21.5961C119.725 20.5417 120.059 19.0668 120.059 17.1714C120.059 15.7154 120.059 14.9873 120.059 14.9873C120.059 14.9873 120.334 14.9873 120.882 14.9873C121.43 14.9873 121.704 14.9873 121.704 14.9873C121.704 14.9873 121.704 15.6338 121.704 16.9267C121.704 19.3869 121.223 21.2698 120.26 22.5752C119.31 23.8807 117.833 24.8032 115.827 25.343ZM103.69 3.53966C103.142 3.53966 102.868 3.53966 102.868 3.53966C102.868 3.53966 102.868 3.30117 102.868 2.82418C102.868 2.34719 102.868 2.1087 102.868 2.1087C102.868 2.1087 103.142 2.1087 103.69 2.1087C104.239 2.1087 104.513 2.1087 104.513 2.1087C104.513 2.1087 104.513 2.34719 104.513 2.82418C104.513 3.30117 104.513 3.53966 104.513 3.53966C104.513 3.53966 104.239 3.53966 103.69 3.53966ZM103.69 2.1087C103.142 2.1087 102.868 2.1087 102.868 2.1087C102.868 2.1087 102.868 1.8702 102.868 1.39322C102.868 0.916228 102.868 0.677734 102.868 0.677734C102.868 0.677734 103.142 0.677734 103.69 0.677734C104.239 0.677734 104.513 0.677734 104.513 0.677734C104.513 0.677734 104.513 0.916228 104.513 1.39322C104.513 1.8702 104.513 2.1087 104.513 2.1087C104.513 2.1087 104.239 2.1087 103.69 2.1087ZM105.335 3.53966C104.787 3.53966 104.513 3.53966 104.513 3.53966C104.513 3.53966 104.513 3.30117 104.513 2.82418C104.513 2.34719 104.513 2.1087 104.513 2.1087C104.513 2.1087 104.787 2.1087 105.335 2.1087C105.884 2.1087 106.158 2.1087 106.158 2.1087C106.158 2.1087 106.158 2.34719 106.158 2.82418C106.158 3.30117 106.158 3.53966 106.158 3.53966C106.158 3.53966 105.884 3.53966 105.335 3.53966ZM105.335 2.1087C104.787 2.1087 104.513 2.1087 104.513 2.1087C104.513 2.1087 104.513 1.8702 104.513 1.39322C104.513 0.916228 104.513 0.677734 104.513 0.677734C104.513 0.677734 104.787 0.677734 105.335 0.677734C105.884 0.677734 106.158 0.677734 106.158 0.677734C106.158 0.677734 106.158 0.916228 106.158 1.39322C106.158 1.8702 106.158 2.1087 106.158 2.1087C106.158 2.1087 105.884 2.1087 105.335 2.1087ZM120.882 3.53966C120.334 3.53966 120.059 3.53966 120.059 3.53966C120.059 3.53966 120.059 3.30117 120.059 2.82418C120.059 2.34719 120.059 2.1087 120.059 2.1087C120.059 2.1087 120.334 2.1087 120.882 2.1087C121.43 2.1087 121.704 2.1087 121.704 2.1087C121.704 2.1087 121.704 2.34719 121.704 2.82418C121.704 3.30117 121.704 3.53966 121.704 3.53966C121.704 3.53966 121.43 3.53966 120.882 3.53966ZM120.882 2.1087C120.334 2.1087 120.059 2.1087 120.059 2.1087C120.059 2.1087 120.059 1.8702 120.059 1.39322C120.059 0.916228 120.059 0.677734 120.059 0.677734C120.059 0.677734 120.334 0.677734 120.882 0.677734C121.43 0.677734 121.704 0.677734 121.704 0.677734C121.704 0.677734 121.704 0.916228 121.704 1.39322C121.704 1.8702 121.704 2.1087 121.704 2.1087C121.704 2.1087 121.43 2.1087 120.882 2.1087ZM122.527 3.53966C121.978 3.53966 121.704 3.53966 121.704 3.53966C121.704 3.53966 121.704 3.30117 121.704 2.82418C121.704 2.34719 121.704 2.1087 121.704 2.1087C121.704 2.1087 121.978 2.1087 122.527 2.1087C123.075 2.1087 123.349 2.1087 123.349 2.1087C123.349 2.1087 123.349 2.34719 123.349 2.82418C123.349 3.30117 123.349 3.53966 123.349 3.53966C123.349 3.53966 123.075 3.53966 122.527 3.53966ZM122.527 2.1087C121.978 2.1087 121.704 2.1087 121.704 2.1087C121.704 2.1087 121.704 1.8702 121.704 1.39322C121.704 0.916228 121.704 0.677734 121.704 0.677734C121.704 0.677734 121.978 0.677734 122.527 0.677734C123.075 0.677734 123.349 0.677734 123.349 0.677734C123.349 0.677734 123.349 0.916228 123.349 1.39322C123.349 1.8702 123.349 2.1087 123.349 2.1087C123.349 2.1087 123.075 2.1087 122.527 2.1087ZM103.69 14.9873C103.142 14.9873 102.868 14.9873 102.868 14.9873C102.868 14.9873 102.868 14.7489 102.868 14.2719C102.868 13.7949 102.868 13.5564 102.868 13.5564C102.868 13.5564 103.142 13.5564 103.69 13.5564C104.239 13.5564 104.513 13.5564 104.513 13.5564C104.513 13.5564 104.513 13.7949 104.513 14.2719C104.513 14.7489 104.513 14.9873 104.513 14.9873C104.513 14.9873 104.239 14.9873 103.69 14.9873ZM103.69 13.5564C103.142 13.5564 102.868 13.5564 102.868 13.5564C102.868 13.5564 102.868 13.3179 102.868 12.8409C102.868 12.3639 102.868 12.1254 102.868 12.1254C102.868 12.1254 103.142 12.1254 103.69 12.1254C104.239 12.1254 104.513 12.1254 104.513 12.1254C104.513 12.1254 104.513 12.3639 104.513 12.8409C104.513 13.3179 104.513 13.5564 104.513 13.5564C104.513 13.5564 104.239 13.5564 103.69 13.5564ZM105.335 14.9873C104.787 14.9873 104.513 14.9873 104.513 14.9873C104.513 14.9873 104.513 14.7489 104.513 14.2719C104.513 13.7949 104.513 13.5564 104.513 13.5564C104.513 13.5564 104.787 13.5564 105.335 13.5564C105.884 13.5564 106.158 13.5564 106.158 13.5564C106.158 13.5564 106.158 13.7949 106.158 14.2719C106.158 14.7489 106.158 14.9873 106.158 14.9873C106.158 14.9873 105.884 14.9873 105.335 14.9873ZM105.335 13.5564C104.787 13.5564 104.513 13.5564 104.513 13.5564C104.513 13.5564 104.513 13.3179 104.513 12.8409C104.513 12.3639 104.513 12.1254 104.513 12.1254C104.513 12.1254 104.787 12.1254 105.335 12.1254C105.884 12.1254 106.158 12.1254 106.158 12.1254C106.158 12.1254 106.158 12.3639 106.158 12.8409C106.158 13.3179 106.158 13.5564 106.158 13.5564C106.158 13.5564 105.884 13.5564 105.335 13.5564ZM120.882 14.9873C120.334 14.9873 120.059 14.9873 120.059 14.9873C120.059 14.9873 120.059 14.7489 120.059 14.2719C120.059 13.7949 120.059 13.5564 120.059 13.5564C120.059 13.5564 120.334 13.5564 120.882 13.5564C121.43 13.5564 121.704 13.5564 121.704 13.5564C121.704 13.5564 121.704 13.7949 121.704 14.2719C121.704 14.7489 121.704 14.9873 121.704 14.9873C121.704 14.9873 121.43 14.9873 120.882 14.9873ZM120.882 13.5564C120.334 13.5564 120.059 13.5564 120.059 13.5564C120.059 13.5564 120.059 13.3179 120.059 12.8409C120.059 12.3639 120.059 12.1254 120.059 12.1254C120.059 12.1254 120.334 12.1254 120.882 12.1254C121.43 12.1254 121.704 12.1254 121.704 12.1254C121.704 12.1254 121.704 12.3639 121.704 12.8409C121.704 13.3179 121.704 13.5564 121.704 13.5564C121.704 13.5564 121.43 13.5564 120.882 13.5564ZM122.527 14.9873C121.978 14.9873 121.704 14.9873 121.704 14.9873C121.704 14.9873 121.704 14.7489 121.704 14.2719C121.704 13.7949 121.704 13.5564 121.704 13.5564C121.704 13.5564 121.978 13.5564 122.527 13.5564C123.075 13.5564 123.349 13.5564 123.349 13.5564C123.349 13.5564 123.349 13.7949 123.349 14.2719C123.349 14.7489 123.349 14.9873 123.349 14.9873C123.349 14.9873 123.075 14.9873 122.527 14.9873ZM122.527 13.5564C121.978 13.5564 121.704 13.5564 121.704 13.5564C121.704 13.5564 121.704 13.3179 121.704 12.8409C121.704 12.3639 121.704 12.1254 121.704 12.1254C121.704 12.1254 121.978 12.1254 122.527 12.1254C123.075 12.1254 123.349 12.1254 123.349 12.1254C123.349 12.1254 123.349 12.3639 123.349 12.8409C123.349 13.3179 123.349 13.5564 123.349 13.5564C123.349 13.5564 123.075 13.5564 122.527 13.5564ZM103.69 12.1254C103.142 12.1254 102.868 12.1254 102.868 12.1254C102.868 12.1254 102.868 11.8869 102.868 11.4099C102.868 10.933 102.868 10.5689 102.868 10.3179C102.868 10.0543 102.868 9.20075 102.868 7.75723C102.868 6.36393 102.868 5.5543 102.868 5.32836C102.868 5.08987 102.868 4.73213 102.868 4.25514C102.868 3.77815 102.868 3.53966 102.868 3.53966C102.868 3.53966 103.142 3.53966 103.69 3.53966C104.239 3.53966 104.513 3.53966 104.513 3.53966C104.513 3.53966 104.513 3.77815 104.513 4.25514C104.513 4.73213 104.513 5.08987 104.513 5.32836C104.513 5.56686 104.513 6.37648 104.513 7.75723C104.513 9.22585 104.513 10.0857 104.513 10.3367C104.513 10.5752 104.513 10.933 104.513 11.4099C104.513 11.8869 104.513 12.1254 104.513 12.1254C104.513 12.1254 104.239 12.1254 103.69 12.1254ZM105.335 12.1254C104.787 12.1254 104.513 12.1254 104.513 12.1254C104.513 12.1254 104.513 11.8869 104.513 11.4099C104.513 10.933 104.513 10.5689 104.513 10.3179C104.513 10.0543 104.513 9.20075 104.513 7.75723C104.513 6.36393 104.513 5.5543 104.513 5.32836C104.513 5.08987 104.513 4.73213 104.513 4.25514C104.513 3.77815 104.513 3.53966 104.513 3.53966C104.513 3.53966 104.787 3.53966 105.335 3.53966C105.884 3.53966 106.158 3.53966 106.158 3.53966C106.158 3.53966 106.158 3.77815 106.158 4.25514C106.158 4.73213 106.158 5.08987 106.158 5.32836C106.158 5.56686 106.158 6.37648 106.158 7.75723C106.158 9.22585 106.158 10.0857 106.158 10.3367C106.158 10.5752 106.158 10.933 106.158 11.4099C106.158 11.8869 106.158 12.1254 106.158 12.1254C106.158 12.1254 105.884 12.1254 105.335 12.1254ZM120.882 12.1254C120.334 12.1254 120.059 12.1254 120.059 12.1254C120.059 12.1254 120.059 11.8869 120.059 11.4099C120.059 10.933 120.059 10.5689 120.059 10.3179C120.059 10.0543 120.059 9.20075 120.059 7.75723C120.059 6.36393 120.059 5.5543 120.059 5.32836C120.059 5.08987 120.059 4.73213 120.059 4.25514C120.059 3.77815 120.059 3.53966 120.059 3.53966C120.059 3.53966 120.334 3.53966 120.882 3.53966C121.43 3.53966 121.704 3.53966 121.704 3.53966C121.704 3.53966 121.704 3.77815 121.704 4.25514C121.704 4.73213 121.704 5.08987 121.704 5.32836C121.704 5.56686 121.704 6.37648 121.704 7.75723C121.704 9.22585 121.704 10.0857 121.704 10.3367C121.704 10.5752 121.704 10.933 121.704 11.4099C121.704 11.8869 121.704 12.1254 121.704 12.1254C121.704 12.1254 121.43 12.1254 120.882 12.1254ZM122.527 12.1254C121.978 12.1254 121.704 12.1254 121.704 12.1254C121.704 12.1254 121.704 11.8869 121.704 11.4099C121.704 10.933 121.704 10.5689 121.704 10.3179C121.704 10.0543 121.704 9.20075 121.704 7.75723C121.704 6.36393 121.704 5.5543 121.704 5.32836C121.704 5.08987 121.704 4.73213 121.704 4.25514C121.704 3.77815 121.704 3.53966 121.704 3.53966C121.704 3.53966 121.978 3.53966 122.527 3.53966C123.075 3.53966 123.349 3.53966 123.349 3.53966C123.349 3.53966 123.349 3.77815 123.349 4.25514C123.349 4.73213 123.349 5.08987 123.349 5.32836C123.349 5.56686 123.349 6.37648 123.349 7.75723C123.349 9.22585 123.349 10.0857 123.349 10.3367C123.349 10.5752 123.349 10.933 123.349 11.4099C123.349 11.8869 123.349 12.1254 123.349 12.1254C123.349 12.1254 123.075 12.1254 122.527 12.1254ZM112.296 26.9811C111.748 26.9434 111.474 26.9246 111.474 26.9246C111.474 26.9246 111.474 26.6861 111.474 26.2091C111.474 25.7447 111.474 25.5125 111.474 25.5125C111.474 25.5125 111.754 25.5438 112.316 25.6066C112.851 25.6191 113.119 25.6254 113.119 25.6254C113.119 25.6254 113.119 25.8451 113.119 26.2844C113.119 26.7614 113.119 26.9999 113.119 26.9999C113.119 26.9999 112.844 26.9936 112.296 26.9811ZM112.316 25.6066C111.754 25.5438 111.474 25.5125 111.474 25.5125C111.474 25.5125 111.474 25.3053 111.474 24.8911C111.474 24.3765 111.474 24.1191 111.474 24.1191C111.474 24.1191 111.761 24.1443 112.336 24.1945C112.858 24.207 113.119 24.2133 113.119 24.2133C113.119 24.2133 113.119 24.4518 113.119 24.9288C113.119 25.3932 113.119 25.6254 113.119 25.6254C113.119 25.6254 112.851 25.6191 112.316 25.6066ZM113.941 26.9811C113.393 26.9936 113.119 26.9999 113.119 26.9999C113.119 26.9999 113.119 26.7614 113.119 26.2844C113.119 25.8451 113.119 25.6254 113.119 25.6254C113.119 25.6254 113.386 25.6191 113.921 25.6066C114.483 25.5564 114.764 25.5313 114.764 25.5313C114.764 25.5313 114.764 25.7572 114.764 26.2091C114.764 26.6861 114.764 26.9246 114.764 26.9246C114.764 26.9246 114.489 26.9434 113.941 26.9811ZM113.921 25.6066C113.386 25.6191 113.119 25.6254 113.119 25.6254C113.119 25.6254 113.119 25.3932 113.119 24.9288C113.119 24.4518 113.119 24.2133 113.119 24.2133C113.119 24.2133 113.379 24.207 113.901 24.1945C114.476 24.1443 114.764 24.1191 114.764 24.1191C114.764 24.1191 114.764 24.3702 114.764 24.8723C114.764 25.3116 114.764 25.5313 114.764 25.5313C114.764 25.5313 114.483 25.5564 113.921 25.6066Z" fill="#374143"/>
<path d="M130.611 3.53966C130.116 3.53966 129.869 3.53966 129.869 3.53966C129.869 3.53966 129.869 3.30117 129.869 2.82418C129.869 2.34719 129.869 2.1087 129.869 2.1087C129.869 2.1087 130.116 2.1087 130.611 2.1087C130.758 2.1087 131.019 2.1087 131.393 2.1087C131.781 2.1087 132.129 2.1087 132.436 2.1087C132.784 2.1087 133.159 2.1087 133.56 2.1087C133.961 2.1087 134.235 2.1087 134.382 2.1087C134.89 2.1087 135.145 2.1087 135.145 2.1087C135.145 2.1087 135.145 2.34091 135.145 2.80535C135.145 3.29489 135.145 3.53966 135.145 3.53966C135.145 3.53966 134.89 3.53966 134.382 3.53966C134.235 3.53966 133.968 3.53966 133.58 3.53966C133.192 3.53966 132.818 3.53966 132.456 3.53966C132.162 3.53966 131.821 3.53966 131.433 3.53966C131.046 3.53966 130.771 3.53966 130.611 3.53966ZM130.611 2.1087C130.116 2.1087 129.869 2.1087 129.869 2.1087C129.869 2.1087 129.869 1.8702 129.869 1.39322C129.869 0.916228 129.869 0.677734 129.869 0.677734C129.869 0.677734 130.116 0.677734 130.611 0.677734C130.771 0.677734 131.032 0.677734 131.393 0.677734C131.768 0.677734 132.115 0.677734 132.436 0.677734C132.771 0.677734 133.138 0.677734 133.54 0.677734C133.954 0.677734 134.235 0.677734 134.382 0.677734C134.89 0.677734 135.145 0.677734 135.145 0.677734C135.145 0.677734 135.145 0.909952 135.145 1.37439C135.145 1.86393 135.145 2.1087 135.145 2.1087C135.145 2.1087 134.89 2.1087 134.382 2.1087C134.235 2.1087 133.961 2.1087 133.56 2.1087C133.159 2.1087 132.784 2.1087 132.436 2.1087C132.129 2.1087 131.781 2.1087 131.393 2.1087C131.019 2.1087 130.758 2.1087 130.611 2.1087ZM139.177 3.53966C138.682 3.53966 138.434 3.53966 138.434 3.53966C138.434 3.53966 138.434 3.30117 138.434 2.82418C138.434 2.34719 138.434 2.1087 138.434 2.1087C138.434 2.1087 138.682 2.1087 139.177 2.1087C139.324 2.1087 139.571 2.1087 139.919 2.1087C140.28 2.1087 140.661 2.1087 141.062 2.1087C141.45 2.1087 141.825 2.1087 142.186 2.1087C142.547 2.1087 142.801 2.1087 142.948 2.1087C143.456 2.1087 143.71 2.1087 143.71 2.1087C143.71 2.1087 143.71 2.34091 143.71 2.80535C143.71 3.29489 143.71 3.53966 143.71 3.53966C143.71 3.53966 143.456 3.53966 142.948 3.53966C142.801 3.53966 142.54 3.53966 142.166 3.53966C141.804 3.53966 141.443 3.53966 141.082 3.53966C140.654 3.53966 140.267 3.53966 139.919 3.53966C139.571 3.53966 139.324 3.53966 139.177 3.53966ZM139.177 2.1087C138.682 2.1087 138.434 2.1087 138.434 2.1087C138.434 2.1087 138.434 1.8702 138.434 1.39322C138.434 0.916228 138.434 0.677734 138.434 0.677734C138.434 0.677734 138.682 0.677734 139.177 0.677734C139.337 0.677734 139.591 0.677734 139.939 0.677734C140.3 0.677734 140.681 0.677734 141.082 0.677734C141.47 0.677734 141.838 0.677734 142.186 0.677734C142.547 0.677734 142.801 0.677734 142.948 0.677734C143.456 0.677734 143.71 0.677734 143.71 0.677734C143.71 0.677734 143.71 0.909952 143.71 1.37439C143.71 1.86393 143.71 2.1087 143.71 2.1087C143.71 2.1087 143.456 2.1087 142.948 2.1087C142.801 2.1087 142.553 2.1087 142.206 2.1087C141.871 2.1087 141.49 2.1087 141.062 2.1087C140.701 2.1087 140.333 2.1087 139.959 2.1087C139.598 2.1087 139.337 2.1087 139.177 2.1087ZM135.967 26.435C135.419 26.435 135.145 26.435 135.145 26.435C135.145 26.435 135.145 26.1966 135.145 25.7196C135.145 25.2426 135.145 25.0041 135.145 25.0041C135.145 25.0041 135.419 25.0041 135.967 25.0041C136.515 25.0041 136.789 25.0041 136.789 25.0041C136.789 25.0041 136.789 25.2426 136.789 25.7196C136.789 26.1966 136.789 26.435 136.789 26.435C136.789 26.435 136.515 26.435 135.967 26.435ZM135.967 25.0041C135.419 25.0041 135.145 25.0041 135.145 25.0041C135.145 25.0041 135.145 24.7656 135.145 24.2886C135.145 23.8116 135.145 23.5731 135.145 23.5731C135.145 23.5731 135.419 23.5731 135.967 23.5731C136.515 23.5731 136.789 23.5731 136.789 23.5731C136.789 23.5731 136.789 23.8116 136.789 24.2886C136.789 24.7656 136.789 25.0041 136.789 25.0041C136.789 25.0041 136.515 25.0041 135.967 25.0041ZM137.612 26.435C137.064 26.435 136.789 26.435 136.789 26.435C136.789 26.435 136.789 26.1966 136.789 25.7196C136.789 25.2426 136.789 25.0041 136.789 25.0041C136.789 25.0041 137.064 25.0041 137.612 25.0041C138.16 25.0041 138.434 25.0041 138.434 25.0041C138.434 25.0041 138.434 25.2426 138.434 25.7196C138.434 26.1966 138.434 26.435 138.434 26.435C138.434 26.435 138.16 26.435 137.612 26.435ZM137.612 25.0041C137.064 25.0041 136.789 25.0041 136.789 25.0041C136.789 25.0041 136.789 24.7656 136.789 24.2886C136.789 23.8116 136.789 23.5731 136.789 23.5731C136.789 23.5731 137.064 23.5731 137.612 23.5731C138.16 23.5731 138.434 23.5731 138.434 23.5731C138.434 23.5731 138.434 23.8116 138.434 24.2886C138.434 24.7656 138.434 25.0041 138.434 25.0041C138.434 25.0041 138.16 25.0041 137.612 25.0041ZM144.533 3.53966C143.984 3.53966 143.71 3.53966 143.71 3.53966C143.71 3.53966 143.71 3.30117 143.71 2.82418C143.71 2.34719 143.71 2.1087 143.71 2.1087C143.71 2.1087 143.984 2.1087 144.533 2.1087C145.081 2.1087 145.355 2.1087 145.355 2.1087C145.355 2.1087 145.355 2.34719 145.355 2.82418C145.355 3.30117 145.355 3.53966 145.355 3.53966C145.355 3.53966 145.081 3.53966 144.533 3.53966ZM144.533 2.1087C143.984 2.1087 143.71 2.1087 143.71 2.1087C143.71 2.1087 143.71 1.8702 143.71 1.39322C143.71 0.916228 143.71 0.677734 143.71 0.677734C143.71 0.677734 143.984 0.677734 144.533 0.677734C145.081 0.677734 145.355 0.677734 145.355 0.677734C145.355 0.677734 145.355 0.916228 145.355 1.39322C145.355 1.8702 145.355 2.1087 145.355 2.1087C145.355 2.1087 145.081 2.1087 144.533 2.1087ZM146.178 3.53966C145.629 3.53966 145.355 3.53966 145.355 3.53966C145.355 3.53966 145.355 3.30117 145.355 2.82418C145.355 2.34719 145.355 2.1087 145.355 2.1087C145.355 2.1087 145.629 2.1087 146.178 2.1087C146.726 2.1087 147 2.1087 147 2.1087C147 2.1087 147 2.34719 147 2.82418C147 3.30117 147 3.53966 147 3.53966C147 3.53966 146.726 3.53966 146.178 3.53966ZM146.178 2.1087C145.629 2.1087 145.355 2.1087 145.355 2.1087C145.355 2.1087 145.355 1.8702 145.355 1.39322C145.355 0.916228 145.355 0.677734 145.355 0.677734C145.355 0.677734 145.629 0.677734 146.178 0.677734C146.726 0.677734 147 0.677734 147 0.677734C147 0.677734 147 0.916228 147 1.39322C147 1.8702 147 2.1087 147 2.1087C147 2.1087 146.726 2.1087 146.178 2.1087ZM127.401 3.53966C126.853 3.53966 126.579 3.53966 126.579 3.53966C126.579 3.53966 126.579 3.30117 126.579 2.82418C126.579 2.34719 126.579 2.1087 126.579 2.1087C126.579 2.1087 126.853 2.1087 127.401 2.1087C127.95 2.1087 128.224 2.1087 128.224 2.1087C128.224 2.1087 128.224 2.34719 128.224 2.82418C128.224 3.30117 128.224 3.53966 128.224 3.53966C128.224 3.53966 127.95 3.53966 127.401 3.53966ZM127.401 2.1087C126.853 2.1087 126.579 2.1087 126.579 2.1087C126.579 2.1087 126.579 1.8702 126.579 1.39322C126.579 0.916228 126.579 0.677734 126.579 0.677734C126.579 0.677734 126.853 0.677734 127.401 0.677734C127.95 0.677734 128.224 0.677734 128.224 0.677734C128.224 0.677734 128.224 0.916228 128.224 1.39322C128.224 1.8702 128.224 2.1087 128.224 2.1087C128.224 2.1087 127.95 2.1087 127.401 2.1087ZM129.046 3.53966C128.498 3.53966 128.224 3.53966 128.224 3.53966C128.224 3.53966 128.224 3.30117 128.224 2.82418C128.224 2.34719 128.224 2.1087 128.224 2.1087C128.224 2.1087 128.498 2.1087 129.046 2.1087C129.595 2.1087 129.869 2.1087 129.869 2.1087C129.869 2.1087 129.869 2.34719 129.869 2.82418C129.869 3.30117 129.869 3.53966 129.869 3.53966C129.869 3.53966 129.595 3.53966 129.046 3.53966ZM129.046 2.1087C128.498 2.1087 128.224 2.1087 128.224 2.1087C128.224 2.1087 128.224 1.8702 128.224 1.39322C128.224 0.916228 128.224 0.677734 128.224 0.677734C128.224 0.677734 128.498 0.677734 129.046 0.677734C129.595 0.677734 129.869 0.677734 129.869 0.677734C129.869 0.677734 129.869 0.916228 129.869 1.39322C129.869 1.8702 129.869 2.1087 129.869 2.1087C129.869 2.1087 129.595 2.1087 129.046 2.1087ZM135.967 14.9873C135.419 14.9873 135.145 14.9873 135.145 14.9873C135.145 14.9873 135.145 14.7489 135.145 14.2719C135.145 13.7949 135.145 13.5564 135.145 13.5564C135.145 13.5564 135.419 13.5564 135.967 13.5564C136.515 13.5564 136.789 13.5564 136.789 13.5564C136.789 13.5564 136.789 13.7949 136.789 14.2719C136.789 14.7489 136.789 14.9873 136.789 14.9873C136.789 14.9873 136.515 14.9873 135.967 14.9873ZM135.967 13.5564C135.419 13.5564 135.145 13.5564 135.145 13.5564C135.145 13.5564 135.145 13.3179 135.145 12.8409C135.145 12.3639 135.145 12.1254 135.145 12.1254C135.145 12.1254 135.419 12.1254 135.967 12.1254C136.515 12.1254 136.789 12.1254 136.789 12.1254C136.789 12.1254 136.789 12.3639 136.789 12.8409C136.789 13.3179 136.789 13.5564 136.789 13.5564C136.789 13.5564 136.515 13.5564 135.967 13.5564ZM137.612 14.9873C137.064 14.9873 136.789 14.9873 136.789 14.9873C136.789 14.9873 136.789 14.7489 136.789 14.2719C136.789 13.7949 136.789 13.5564 136.789 13.5564C136.789 13.5564 137.064 13.5564 137.612 13.5564C138.16 13.5564 138.434 13.5564 138.434 13.5564C138.434 13.5564 138.434 13.7949 138.434 14.2719C138.434 14.7489 138.434 14.9873 138.434 14.9873C138.434 14.9873 138.16 14.9873 137.612 14.9873ZM137.612 13.5564C137.064 13.5564 136.789 13.5564 136.789 13.5564C136.789 13.5564 136.789 13.3179 136.789 12.8409C136.789 12.3639 136.789 12.1254 136.789 12.1254C136.789 12.1254 137.064 12.1254 137.612 12.1254C138.16 12.1254 138.434 12.1254 138.434 12.1254C138.434 12.1254 138.434 12.3639 138.434 12.8409C138.434 13.3179 138.434 13.5564 138.434 13.5564C138.434 13.5564 138.16 13.5564 137.612 13.5564ZM135.967 3.53966C135.419 3.53966 135.145 3.53966 135.145 3.53966C135.145 3.53966 135.145 3.30117 135.145 2.82418C135.145 2.34719 135.145 2.1087 135.145 2.1087C135.145 2.1087 135.419 2.1087 135.967 2.1087C136.515 2.1087 136.789 2.1087 136.789 2.1087C136.789 2.1087 136.789 2.34719 136.789 2.82418C136.789 3.30117 136.789 3.53966 136.789 3.53966C136.789 3.53966 136.515 3.53966 135.967 3.53966ZM135.967 2.1087C135.419 2.1087 135.145 2.1087 135.145 2.1087C135.145 2.1087 135.145 1.8702 135.145 1.39322C135.145 0.916228 135.145 0.677734 135.145 0.677734C135.145 0.677734 135.419 0.677734 135.967 0.677734C136.515 0.677734 136.789 0.677734 136.789 0.677734C136.789 0.677734 136.789 0.916228 136.789 1.39322C136.789 1.8702 136.789 2.1087 136.789 2.1087C136.789 2.1087 136.515 2.1087 135.967 2.1087ZM137.612 3.53966C137.064 3.53966 136.789 3.53966 136.789 3.53966C136.789 3.53966 136.789 3.30117 136.789 2.82418C136.789 2.34719 136.789 2.1087 136.789 2.1087C136.789 2.1087 137.064 2.1087 137.612 2.1087C138.16 2.1087 138.434 2.1087 138.434 2.1087C138.434 2.1087 138.434 2.34719 138.434 2.82418C138.434 3.30117 138.434 3.53966 138.434 3.53966C138.434 3.53966 138.16 3.53966 137.612 3.53966ZM137.612 2.1087C137.064 2.1087 136.789 2.1087 136.789 2.1087C136.789 2.1087 136.789 1.8702 136.789 1.39322C136.789 0.916228 136.789 0.677734 136.789 0.677734C136.789 0.677734 137.064 0.677734 137.612 0.677734C138.16 0.677734 138.434 0.677734 138.434 0.677734C138.434 0.677734 138.434 0.916228 138.434 1.39322C138.434 1.8702 138.434 2.1087 138.434 2.1087C138.434 2.1087 138.16 2.1087 137.612 2.1087ZM135.967 12.1254C135.419 12.1254 135.145 12.1254 135.145 12.1254C135.145 12.1254 135.145 11.8869 135.145 11.4099C135.145 10.933 135.145 10.5689 135.145 10.3179C135.145 10.0543 135.145 9.20075 135.145 7.75723C135.145 6.36393 135.145 5.5543 135.145 5.32836C135.145 5.08987 135.145 4.73213 135.145 4.25514C135.145 3.77815 135.145 3.53966 135.145 3.53966C135.145 3.53966 135.419 3.53966 135.967 3.53966C136.515 3.53966 136.789 3.53966 136.789 3.53966C136.789 3.53966 136.789 3.77815 136.789 4.25514C136.789 4.73213 136.789 5.08987 136.789 5.32836C136.789 5.56686 136.789 6.37648 136.789 7.75723C136.789 9.22585 136.789 10.0857 136.789 10.3367C136.789 10.5752 136.789 10.933 136.789 11.4099C136.789 11.8869 136.789 12.1254 136.789 12.1254C136.789 12.1254 136.515 12.1254 135.967 12.1254ZM137.612 12.1254C137.064 12.1254 136.789 12.1254 136.789 12.1254C136.789 12.1254 136.789 11.8869 136.789 11.4099C136.789 10.933 136.789 10.5689 136.789 10.3179C136.789 10.0543 136.789 9.20075 136.789 7.75723C136.789 6.36393 136.789 5.5543 136.789 5.32836C136.789 5.08987 136.789 4.73213 136.789 4.25514C136.789 3.77815 136.789 3.53966 136.789 3.53966C136.789 3.53966 137.064 3.53966 137.612 3.53966C138.16 3.53966 138.434 3.53966 138.434 3.53966C138.434 3.53966 138.434 3.77815 138.434 4.25514C138.434 4.73213 138.434 5.08987 138.434 5.32836C138.434 5.56686 138.434 6.37648 138.434 7.75723C138.434 9.22585 138.434 10.0857 138.434 10.3367C138.434 10.5752 138.434 10.933 138.434 11.4099C138.434 11.8869 138.434 12.1254 138.434 12.1254C138.434 12.1254 138.16 12.1254 137.612 12.1254ZM135.967 23.5731C135.419 23.5731 135.145 23.5731 135.145 23.5731C135.145 23.5731 135.145 23.3346 135.145 22.8576C135.145 22.3807 135.145 22.0292 135.145 21.8032C135.145 21.5648 135.145 20.7238 135.145 19.2802C135.145 17.8869 135.145 17.0648 135.145 16.8137C135.145 16.5501 135.145 16.1798 135.145 15.7028C135.145 15.2258 135.145 14.9873 135.145 14.9873C135.145 14.9873 135.419 14.9873 135.967 14.9873C136.515 14.9873 136.789 14.9873 136.789 14.9873C136.789 14.9873 136.789 15.2258 136.789 15.7028C136.789 16.1798 136.789 16.5501 136.789 16.8137C136.789 17.0773 136.789 17.8995 136.789 19.2802C136.789 20.7489 136.789 21.5961 136.789 21.8221C136.789 22.0355 136.789 22.3807 136.789 22.8576C136.789 23.3346 136.789 23.5731 136.789 23.5731C136.789 23.5731 136.515 23.5731 135.967 23.5731ZM137.612 23.5731C137.064 23.5731 136.789 23.5731 136.789 23.5731C136.789 23.5731 136.789 23.3346 136.789 22.8576C136.789 22.3807 136.789 22.0292 136.789 21.8032C136.789 21.5648 136.789 20.7238 136.789 19.2802C136.789 17.8869 136.789 17.0648 136.789 16.8137C136.789 16.5501 136.789 16.1798 136.789 15.7028C136.789 15.2258 136.789 14.9873 136.789 14.9873C136.789 14.9873 137.064 14.9873 137.612 14.9873C138.16 14.9873 138.434 14.9873 138.434 14.9873C138.434 14.9873 138.434 15.2258 138.434 15.7028C138.434 16.1798 138.434 16.5501 138.434 16.8137C138.434 17.0773 138.434 17.8995 138.434 19.2802C138.434 20.7489 138.434 21.5961 138.434 21.8221C138.434 22.0355 138.434 22.3807 138.434 22.8576C138.434 23.3346 138.434 23.5731 138.434 23.5731C138.434 23.5731 138.16 23.5731 137.612 23.5731Z" fill="#374143"/>
</svg>
