<svg width="356" height="316" fill="none" xmlns="http://www.w3.org/2000/svg"><g clip-path="url(#clip0_1_59)"><path d="M290.91 316c41.18 0 65.09-19.984 65.09-57.286 0-33.306-21.254-55.954-55.791-55.954-19.925 0-34.537 6.661-42.508 19.983-7.97-10.658-13.283-27.977-13.283-54.622 0-57.286 18.597-109.244 65.089-157.204 5.314-5.33-3.985-14.655-10.626-9.326-59.776 58.619-96.971 118.57-96.971 194.507 0 78.603 33.209 119.902 89 119.902zM89 316c41.179 0 65.09-19.984 65.09-57.286 0-33.306-21.254-55.954-55.791-55.954-19.926 0-34.538 6.661-42.508 19.983-7.97-10.658-13.283-27.977-13.283-54.622 0-57.286 18.596-109.244 65.089-157.204 5.313-5.33-3.985-14.655-10.627-9.326C37.194 60.21 0 120.161 0 196.098 0 274.7 33.209 316 89 316z" fill="#F8F8F8"/></g><defs><clipPath id="clip0_1_59"><path fill="#fff" d="M0 0h356v316H0z"/></clipPath></defs></svg>