<svg width="50" height="50" viewBox="0 0 50 50" fill="none" xmlns="http://www.w3.org/2000/svg">
<g clip-path="url(#clip0_1_28)">
<path d="M25 49.1071C38.314 49.1071 49.1071 38.314 49.1071 25C49.1071 11.686 38.314 0.892822 25 0.892822C11.686 0.892822 0.892853 11.686 0.892853 25C0.892853 38.314 11.686 49.1071 25 49.1071Z" stroke="white" stroke-width="2"/>
<path d="M34.8211 35.6029V33.237C34.8211 31.982 34.3225 30.7784 33.4351 29.891C32.5477 29.0036 31.3441 28.5051 30.0892 28.5051H20.6255C19.3705 28.5051 18.1669 29.0036 17.2795 29.891C16.3921 30.7784 15.8936 31.982 15.8936 33.237V35.6029" stroke="white" stroke-width="2" stroke-linecap="round" stroke-linejoin="round"/>
<path d="M25.3574 23.7738C27.9707 23.7738 30.0893 21.6553 30.0893 19.0419C30.0893 16.4286 27.9707 14.3101 25.3574 14.3101C22.744 14.3101 20.6255 16.4286 20.6255 19.0419C20.6255 21.6553 22.744 23.7738 25.3574 23.7738Z" stroke="white" stroke-width="2" stroke-linecap="round" stroke-linejoin="round"/>
</g>
<defs>
<clipPath id="clip0_1_28">
<rect width="50" height="50" fill="white"/>
</clipPath>
</defs>
</svg>
