<svg width="356" height="316" viewBox="0 0 356 316" fill="none" xmlns="http://www.w3.org/2000/svg">
<g clip-path="url(#clip0_1_59)">
<path d="M290.91 316C332.09 316 356 296.016 356 258.714C356 225.408 334.746 202.76 300.209 202.76C280.284 202.76 265.672 209.421 257.701 222.743C249.731 212.085 244.418 194.766 244.418 168.121C244.418 110.835 263.015 58.8775 309.507 10.9168C314.821 5.58784 305.522 -3.73784 298.881 1.59113C239.105 60.2097 201.91 120.161 201.91 196.098C201.91 274.701 235.119 316 290.91 316ZM89 316C130.179 316 154.09 296.016 154.09 258.714C154.09 225.408 132.836 202.76 98.2985 202.76C78.3732 202.76 63.7612 209.421 55.791 222.743C47.8209 212.085 42.5075 194.766 42.5075 168.121C42.5075 110.835 61.1045 58.8775 107.597 10.9168C112.91 5.58782 103.612 -3.73786 96.9702 1.59111C37.1941 60.2097 6.6387e-06 120.161 0 196.098C-6.8716e-06 274.7 33.209 316 89 316Z" fill="#F8F8F8"/>
</g>
<defs>
<clipPath id="clip0_1_59">
<rect width="356" height="316" fill="white"/>
</clipPath>
</defs>
</svg>
