<svg width="147" height="27" fill="none" xmlns="http://www.w3.org/2000/svg"><path d="M.822 23.573H0v-5.837h1.645v5.837H.822zm0-8.699H0V3.54h1.645v11.334H.822zm1.645 8.7h-.822v-5.838H3.29v5.837h-.823zm0-8.7h-.822V3.54H3.29v11.334h-.823zm.963 2.862h-.14v-1.431h.642a16.036 16.036 0 001.304-.075l.34-.038a9342.53 9342.53 0 00.883 1.28l-.26.038a13.074 13.074 0 01-2.427.226H3.43zm0-1.43h-.14v-1.432h.782c.054 0 .16-.006.321-.019l.24-.018.482.696.462.66-.341.037c-.228.025-.482.044-.763.056-.28.013-.461.02-.541.02H3.43zm7.964-7.344h-.842V8.83c0-1.393-.656-2.623-1.966-3.69-1.298-1.067-2.916-1.6-4.855-1.6H3.29V2.109h.44c2.367 0 4.373.665 6.018 1.996 1.645 1.33 2.468 2.9 2.468 4.707v.15h-.823zm1.665 0h-.842v-.15c0-1.808-.823-3.377-2.468-4.707C8.104 2.774 6.1 2.109 3.731 2.109H3.29V.678h.48c2.942 0 5.363.797 7.262 2.391 1.912 1.582 2.869 3.452 2.869 5.61v.283h-.843zm-.702 15.12l-.662.433-.542-.697A41.26 41.26 0 019.71 21.86a152.87 152.87 0 00-3.25-4.387l.783-.189.762-.244.542.715a866.265 866.265 0 012.427 3.22c.615.79 1.123 1.462 1.524 2.014l.482.678-.622.414zm-3.57-9.114l-.362.189-.441-.584-.461-.621.34-.188c.71-.377 1.331-.973 1.866-1.79.548-.828.823-1.662.823-2.503v-.132h1.665v.15c0 1.092-.321 2.128-.963 3.107a7.576 7.576 0 01-2.468 2.373zm4.854 8.266l-.662.433-.482-.678a78.918 78.918 0 00-1.524-2.014 862.667 862.667 0 00-2.427-3.22l-.542-.715.722-.283.662-.32.602.79a270.04 270.04 0 012.327 3.089 57.824 57.824 0 001.324 1.713l.622.81-.622.395zM9.689 16.25l-.3.188-.502-.64-.462-.64.361-.188a7.576 7.576 0 002.468-2.373c.642-.979.963-2.014.963-3.107v-.15h1.685v.282c0 1.343-.381 2.605-1.144 3.785-.762 1.18-1.785 2.127-3.069 2.843zm-3.33-.245l-.782.188-.462-.659-.481-.696.802-.132c.495-.138.736-.207.722-.207l.382.527.541.734-.722.245zm.883 1.28l-.783.189-.441-.64-.441-.64.782-.189.722-.245.421.622.502.659-.762.244zm.521-1.788l-.682.263-.541-.734-.382-.527c.014 0 .255-.075.723-.226l.642-.32.46.621.442.584-.662.339zm.963 1.261l-.722.283-.502-.66-.42-.62.681-.264.662-.34.462.641.501.64-.662.32zm2.668-7.418h-.842v-.188h1.665v.188h-.823zm0-.188h-.842v-.189h1.665v.189h-.823zm1.665.188h-.842v-.188h1.685v.188h-.843zm0-.188h-.842v-.189h1.685v.189h-.843zM.822 17.736H0v-1.431h1.645v1.431H.822zm0-1.43H0v-1.432h1.645v1.431H.822zm1.645 1.43h-.822v-1.431H3.29v1.431h-.823zm0-1.43h-.822v-1.432H3.29v1.431h-.823zM.822 26.434H0v-1.431h1.645v1.431H.822zm0-1.43H0v-1.432h1.645v1.431H.822zm1.645 1.43h-.822v-1.431H3.29v1.431h-.823zm0-1.43h-.822v-1.432H3.29v1.431h-.823zM.822 3.54H0V2.109h1.645V3.54H.822zm0-1.431H0V.678h1.645v1.431H.822zm1.645 1.43h-.822v-1.43H3.29V3.54h-.823zm0-1.43h-.822V.678H3.29v1.431h-.823zm11.154 21.144l.642-.433.421.584.421.564-.642.415-.642.433-.42-.584-.422-.565.642-.414zm.842 1.13l.642-.415.421.565.422.584-.622.414-.642.415-.441-.565-.422-.565.642-.433zm-2.126-.302l.642-.414.421.565.421.584-.642.414-.642.414-.42-.565-.422-.564.642-.434zm.842 1.149l.642-.414.422.565.441.564-.642.434-.642.414-.441-.565-.421-.584.641-.414zm10.853 1.205h-.802v-1.431h6.579v1.431h-5.777zm0-1.43h-.802v-1.432h6.579v1.431h-5.777zm0-10.018h-.802v-1.431h4.933v1.431h-4.132zm0-1.43h-.802v-1.432h4.933v1.431h-4.132zm0-10.017h-.802V2.109h6.579V3.54h-5.777zm0-1.431h-.802V.678h6.579v1.431h-5.777zm-3.27 12.878h-.822v-1.431h1.645v1.431h-.823zm0-1.43h-.822v-1.432h1.645v1.431h-.823zm1.645 1.43h-.822v-1.431h1.645v1.431h-.823zm0-1.43h-.822v-1.432h1.645v1.431h-.823zm-1.645-1.432h-.822V3.54h1.645v8.585h-.823zm1.645 0h-.822V3.54h1.645v8.585h-.823zm-1.645 11.448h-.822v-8.586h1.645v8.586h-.823zm1.645 0h-.822v-8.586h1.645v8.586h-.823zM20.762 3.54h-.822V2.109h1.645V3.54h-.823zm0-1.431h-.822V.678h1.645v1.431h-.823zm1.645 1.43h-.822v-1.43h1.645V3.54h-.823zm0-1.43h-.822V.678h1.645v1.431h-.823zm-1.645 24.326h-.822v-1.431h1.645v1.431h-.823zm0-1.43h-.822v-1.432h1.645v1.431h-.823zm1.645 1.43h-.822v-1.431h1.645v1.431h-.823zm0-1.43h-.822v-1.432h1.645v1.431h-.823zm8.225 1.43h-.823v-1.431h1.645v1.431h-.822zm0-1.43h-.823v-1.432h1.645v1.431h-.822zm1.645 1.43h-.823v-1.431H33.1v1.431h-.822zm0-1.43h-.823v-1.432H33.1v1.431h-.822zm-3.29-10.018h-.823v-1.431h1.645v1.431h-.822zm0-1.43h-.823v-1.432h1.645v1.431h-.822zm1.645 1.43h-.823v-1.431h1.645v1.431h-.822zm0-1.43h-.823v-1.432h1.645v1.431h-.822zm0-10.017h-.823V2.109h1.645V3.54h-.822zm0-1.431h-.823V.678h1.645v1.431h-.822zm1.645 1.43h-.823v-1.43H33.1V3.54h-.822zm0-1.43h-.823V.678H33.1v1.431h-.822zm-3.29 12.878h-.823v-1.431h1.645v1.431h-.822zm0-1.43h-.823v-1.432h1.645v1.431h-.822zm1.645 1.43h-.823v-1.431h1.645v1.431h-.822zm0-1.43h-.823v-1.432h1.645v1.431h-.822zm4.694 12.878h-.943v-1.186l.32-.716c.228-.502.643-1.405 1.245-2.71a975.573 975.573 0 011.384-2.957c.307-.653.615-1.293.922-1.92.308-.628.556-1.149.743-1.563l.561-1.186.723.3.702.302-.562 1.205a137.99 137.99 0 00-.863 1.826c-.214.452-.454.954-.722 1.507-.454.941-.89 1.839-1.304 2.692-.4.841-.782 1.645-1.143 2.41l-.28.565h10.43v1.431H35.326zm7.562-13.839l-.702-.301.562-1.205c.12-.264.348-.74.682-1.431.334-.703.635-1.33.903-1.883.454-.941.882-1.833 1.284-2.674.414-.853.802-1.663 1.163-2.428l.28-.565h-9.367V.678h11.093v1.186l-.32.715c-.228.502-.65 1.413-1.265 2.73a419.634 419.634 0 01-1.364 2.938c-.307.652-.615 1.293-.923 1.92a45 45 0 00-.742 1.544l-.561 1.186-.723-.3zm-5.316 12.408h-1.464l.28-.565c.362-.765.743-1.569 1.144-2.41.415-.853.85-1.75 1.304-2.692.321-.678.575-1.212.763-1.6.187-.402.46-.98.822-1.733l.562-1.205.722.301.702.302-.542 1.186-.38.828a77.47 77.47 0 01-1.064 2.297 90.204 90.204 0 01-1.023 2.203 47.12 47.12 0 01-.542 1.13l-.28.527h7.962v1.431h-8.967zm3.892-13.01l-.722-.302.562-1.186.521-1.148a44.95 44.95 0 01.923-1.959c.401-.803.749-1.53 1.043-2.184a32 32 0 01.522-1.148l.28-.527h-6.9V2.109h9.368l-.281.565a234.81 234.81 0 01-1.163 2.428c-.402.854-.83 1.745-1.284 2.674-.268.552-.569 1.18-.903 1.883-.334.69-.562 1.167-.682 1.43l-.562 1.206-.722-.301zm-1.183 2.504l-.723-.301.301-.622.301-.621.702.301.722.301-.3.622-.301.621-.702-.301zm1.424.602l-.722-.3.3-.622.301-.622.723.302.702.3-.301.603-.301.64-.702-.3zm-.843-1.845l-.702-.301.281-.622.3-.64a5965.554 5965.554 0 001.445.603l-.3.64-.302.621-.722-.3zm1.445.603l-.723-.302.301-.621.301-.64.702.301.723.301-.301.64-.301.622-.702-.301zM35.225 3.54h-.822V2.109h1.645V3.54h-.823zm0-1.431h-.822V.678h1.645v1.431h-.823zm1.645 1.43h-.822v-1.43h1.645V3.54h-.823zm0-1.43h-.822V.678h1.645v1.431h-.823zm10.492 24.326h-.823v-1.431h1.645v1.431h-.822zm0-1.43h-.823v-1.432h1.645v1.431h-.822zm1.645 1.43h-.823v-1.431h1.645v1.431h-.822zm0-1.43h-.823v-1.432h1.645v1.431h-.822zm3.831-10.018h-.822l-.04-.715-.02-.716H53.6v.716l.04.715h-.802zm-.04-1.43h-.843l.02-.716.04-.715h1.626l-.04.715v.716h-.803zm1.745 1.43h-.902l-.04-.715v-.716h1.745l.02.716.06.715h-.883zm-.04-1.43H53.6v-.716l.04-.715h1.786l-.06.715-.02.716h-.843zm-1.665-1.431h-.822l.08-.791c.187-1.306.615-2.611 1.284-3.917a12.437 12.437 0 012.668-3.483 15.884 15.884 0 013.67-2.523C61.07.734 62.582.302 64.253.113l.863-.057v1.469l-.843.075c-1.404.164-2.694.534-3.871 1.111a12.776 12.776 0 00-3.17 2.147 10.424 10.424 0 00-2.267 3.031 12.81 12.81 0 00-1.183 3.483l-.1.754h-.843zm1.705 0h-.862l.1-.754a12.81 12.81 0 011.184-3.483 10.424 10.424 0 012.266-3.031 12.776 12.776 0 013.17-2.147c1.177-.577 2.467-.947 3.871-1.11l.843-.076v1.487l-.823.095c-1.19.188-2.3.52-3.33.998a9.229 9.229 0 00-2.668 1.788 8.568 8.568 0 00-1.805 2.561 11.525 11.525 0 00-.943 2.975l-.12.697h-.883zm11.435-9.189l-.863.076V1.525l.842-.075.803-.019v1.487l-.782.02zm-.02-1.487l-.843.075V.056l.822-.037L66.76 0v1.431l-.803.019zm1.584 1.487l-.782-.019V1.431l.802.019.843.056v1.506l-.863-.075zm.02-1.487l-.802-.019V0l.822.019.823.056v1.431l-.843-.056zm13.12 10.675h-.883l-.1-.734a11.017 11.017 0 00-1.445-3.747 12.773 12.773 0 00-2.668-3.088 14.033 14.033 0 00-2.688-1.826c-.963-.502-2.146-.872-3.55-1.11l-.943-.114V.075l.963.094c1.35.176 2.634.534 3.851 1.074a14.483 14.483 0 013.45 2.127A13.923 13.923 0 0179.8 6.93a11.12 11.12 0 011.625 4.387l.08.81h-.823zm-1.706 0h-.882l-.12-.677A9.223 9.223 0 0076.79 8.34a10.638 10.638 0 00-2.187-2.655c-.869-.766-1.705-1.337-2.507-1.713-.79-.39-1.745-.678-2.869-.866l-.822-.094V1.505l.943.113c1.404.239 2.587.609 3.55 1.111.963.502 1.86 1.111 2.688 1.826 1.07.904 1.96 1.934 2.668 3.088a11.017 11.017 0 011.445 3.747l.1.735h-.823zm0 2.862h-.882l.06-.715.02-.716h1.705v.716l-.04.715h-.863zm.04-1.43h-.842l-.02-.716-.06-.715h1.765l.02.715v.716h-.863zm1.665 1.43h-.842l.04-.715v-.716h1.685l-.02.716-.04.715h-.823zm.04-1.43h-.842v-.716l-.02-.715h1.645l.04.715.02.716h-.842zM69.429 26.83l-1.023.075V25.53l.963-.113c1.177-.188 2.367-.57 3.57-1.148a13.074 13.074 0 003.23-2.147 11.561 11.561 0 002.327-2.937 11.28 11.28 0 001.244-3.464l.1-.735h1.665l-.08.791c-.188 1.306-.642 2.599-1.364 3.879a13.594 13.594 0 01-2.709 3.408 15.29 15.29 0 01-3.81 2.542c-1.432.665-2.803 1.073-4.113 1.224zm-.06-1.413l-.963.113v-1.431l.822-.075c1.19-.2 2.28-.552 3.27-1.054a10.978 10.978 0 002.608-1.864 10.002 10.002 0 001.865-2.486 9.85 9.85 0 001.003-2.937l.12-.697h1.746l-.1.735a11.28 11.28 0 01-1.244 3.464 11.561 11.561 0 01-2.327 2.937 13.074 13.074 0 01-3.23 2.147c-1.203.577-2.394.96-3.57 1.148zm-3.43 1.544l-.823-.056v-1.412l.842.094.803.019v1.374l-.823-.019zm.02-1.374l-.843-.094v-1.394l.863.076.782.019v1.412l-.803-.02zm1.624 1.374l-.822.02v-1.376l.802-.018.843-.075v1.393l-.823.056zm-.02-1.374l-.802.019v-1.412l.782-.02.863-.075v1.413l-.843.075zm-3.31 1.224a18.74 18.74 0 01-3.972-1.055 13.087 13.087 0 01-3.51-2.052 13.319 13.319 0 01-3.11-3.54 11.828 11.828 0 01-1.564-4.387l-.08-.79h1.705l.1.734a11.946 11.946 0 001.404 3.784 11.8 11.8 0 002.628 3.126c.83.715 1.765 1.293 2.809 1.732 1.043.44 2.213.778 3.51 1.017l.943.132v1.393l-.863-.094zm-.08-1.431c-1.297-.239-2.467-.578-3.51-1.017a10.509 10.509 0 01-2.809-1.732 11.8 11.8 0 01-2.628-3.126 11.946 11.946 0 01-1.404-3.784l-.1-.735h1.705l.12.678a10.71 10.71 0 001.124 3.163 10.154 10.154 0 002.166 2.674c.87.766 1.712 1.337 2.528 1.713.815.364 1.798.634 2.949.81l.802.075v1.413l-.943-.132zm26.879 1.055H89.79v-1.431h6.579v1.431h-5.316zm0-1.43H89.79v-1.432h6.579v1.431h-5.316zm-3.73 1.43h-.823v-1.431h1.645v1.431h-.823zm0-1.43h-.823v-1.432h1.645v1.431h-.823zm1.644 1.43h-.822v-1.431h1.645v1.431h-.823zm0-1.43h-.822v-1.432h1.645v1.431h-.823zM87.321 3.54H86.5V2.109h1.645V3.54h-.823zm0-1.431H86.5V.678h1.645v1.431h-.823zm1.645 1.43h-.822v-1.43h1.645V3.54h-.823zm0-1.43h-.822V.678h1.645v1.431h-.823zm-1.645 10.016H86.5V3.54h1.645v8.585h-.823zm1.645 0h-.822V3.54h1.645v8.585h-.823zm-1.645 11.448H86.5v-8.586h1.645v8.586h-.823zm1.645 0h-.822v-8.586h1.645v8.586h-.823zm-1.645-8.586H86.5v-1.431h1.645v1.431h-.823zm0-1.43H86.5v-1.432h1.645v1.431h-.823zm1.645 1.43h-.822v-1.431h1.645v1.431h-.823zm0-1.43h-.822v-1.432h1.645v1.431h-.823zm8.225 12.878h-.823v-1.431h1.645v1.431h-.822zm0-1.43h-.823v-1.432h1.645v1.431h-.822zm1.645 1.43h-.823v-1.431h1.645v1.431h-.822zm0-1.43h-.823v-1.432h1.645v1.431h-.822zm11.534 1.769c-2.434-.49-4.292-1.444-5.576-2.862-1.284-1.43-1.926-3.841-1.926-7.23v-1.695h1.645v1.94c0 2.523.481 4.424 1.444 5.705.963 1.267 2.447 2.177 4.453 2.73l1.064.15v1.413l-1.104-.151zm.04-1.412c-2.006-.552-3.49-1.462-4.453-2.73-.963-1.28-1.444-3.182-1.444-5.705v-1.94h1.645v2.184c0 1.896.334 3.37 1.003 4.425.682 1.042 1.805 1.82 3.37 2.335l.943.188v1.393l-1.064-.15zm5.457 1.412l-1.103.15v-1.393l1.063-.188c2.006-.54 3.483-1.462 4.433-2.768.963-1.305 1.444-3.188 1.444-5.648v-1.94h1.645v1.695c0 3.389-.642 5.8-1.926 7.23-1.27 1.418-3.122 2.372-5.556 2.862zm-.04-1.431l-1.063.188v-1.412l.942-.188c1.565-.515 2.682-1.293 3.35-2.335.669-1.054 1.003-2.53 1.003-4.425v-2.184h1.645v1.94c0 2.46-.481 4.343-1.444 5.648-.95 1.306-2.427 2.228-4.433 2.768zM103.69 3.54h-.822V2.109h1.645V3.54h-.823zm0-1.431h-.822V.678h1.645v1.431h-.823zm1.645 1.43h-.822v-1.43h1.645V3.54h-.823zm0-1.43h-.822V.678h1.645v1.431h-.823zm15.547 1.43h-.823v-1.43h1.645V3.54h-.822zm0-1.43h-.823V.678h1.645v1.431h-.822zm1.645 1.43h-.823v-1.43h1.645V3.54h-.822zm0-1.43h-.823V.678h1.645v1.431h-.822zM103.69 14.987h-.822v-1.431h1.645v1.431h-.823zm0-1.43h-.822v-1.432h1.645v1.431h-.823zm1.645 1.43h-.822v-1.431h1.645v1.431h-.823zm0-1.43h-.822v-1.432h1.645v1.431h-.823zm15.547 1.43h-.823v-1.431h1.645v1.431h-.822zm0-1.43h-.823v-1.432h1.645v1.431h-.822zm1.645 1.43h-.823v-1.431h1.645v1.431h-.822zm0-1.43h-.823v-1.432h1.645v1.431h-.822zm-18.837-1.432h-.822V3.54h1.645v8.585h-.823zm1.645 0h-.822V3.54h1.645v8.585h-.823zm15.547 0h-.823V3.54h1.645v8.585h-.822zm1.645 0h-.823V3.54h1.645v8.585h-.822zm-10.231 14.856l-.822-.056v-1.413l.842.095.803.018V27l-.823-.019zm.02-1.374l-.842-.095v-1.393l.862.076.783.018v1.412l-.803-.018zm1.625 1.374l-.822.019v-1.375l.802-.018.843-.076v1.394l-.823.056zm-.02-1.374l-.802.018v-1.412l.782-.018.863-.076v1.413l-.843.075zm16.69-22.067h-.742V2.109h5.276V3.54h-4.534zm0-1.431h-.742V.678h5.276v1.431h-4.534zm8.566 1.43h-.743v-1.43h5.276V3.54h-4.533zm0-1.43h-.743V.678h5.276v1.431h-4.533zm-3.21 24.326h-.822v-1.431h1.644v1.431h-.822zm0-1.43h-.822v-1.432h1.644v1.431h-.822zm1.645 1.43h-.823v-1.431h1.645v1.431h-.822zm0-1.43h-.823v-1.432h1.645v1.431h-.822zm6.921-21.465h-.823V2.109h1.645V3.54h-.822zm0-1.431h-.823V.678h1.645v1.431h-.822zm1.645 1.43h-.823v-1.43H147V3.54h-.822zm0-1.43h-.823V.678H147v1.431h-.822zm-18.777 1.43h-.822v-1.43h1.645V3.54h-.823zm0-1.43h-.822V.678h1.645v1.431h-.823zm1.645 1.43h-.822v-1.43h1.645V3.54h-.823zm0-1.43h-.822V.678h1.645v1.431h-.823zm6.921 12.878h-.822v-1.431h1.644v1.431h-.822zm0-1.43h-.822v-1.432h1.644v1.431h-.822zm1.645 1.43h-.823v-1.431h1.645v1.431h-.822zm0-1.43h-.823v-1.432h1.645v1.431h-.822zM135.967 3.54h-.822V2.109h1.644V3.54h-.822zm0-1.431h-.822V.678h1.644v1.431h-.822zm1.645 1.43h-.823v-1.43h1.645V3.54h-.822zm0-1.43h-.823V.678h1.645v1.431h-.822zm-1.645 10.016h-.822V3.54h1.644v8.585h-.822zm1.645 0h-.823V3.54h1.645v8.585h-.822zm-1.645 11.448h-.822v-8.586h1.644v8.586h-.822zm1.645 0h-.823v-8.586h1.645v8.586h-.822z" fill="#374143"/></svg>